# File produced by Open Asset Import Library (http://www.assimp.sf.net)
# (assimp v5.2.0)

# 38 vertex positions
v  25 0.5 44
v  25 0.5 104
v  25 3.5 44
v  111 0.5 44
v  111 0.5 104
v  25 3.5 104
v  27 2 46
v  27.8666687 3.5 46
v  27 3.5 46
v  27 3.5 74
v  68 3.5 46
v  111 3.5 44
v  27 2 102
v  109 2 46
v  27 3.5 102
v  68 3.5 102
v  103 0.5 60
v  109 0.5 60
v  103 0.5 88
v  109 0.5 88
v  111 3.5 104
v  103 2 60
v  104.714294 2 60
v  109 2 60
v  109 3.5 74
v  109 2 68
v  109 3.5 46
v  103 2 80
v  103 2 88
v  109 2 102
v  109 2 88
v  109 2.75 88
v  109 3.41665983 75.5555496
v  107.285721 2 88
v  109 3.5 76
v  108.133331 3.5 102
v  109 3.5 102
v  109 3.5 88

# 45 UV coordinates
vt 0 1 0
vt 1 1 0
vt 0 0 0
vt 0.489430904 0.989430904 0
vt 0.5 1 0
vt 0 0.5 0
vt 0.5 0.5 0
vt 0.0232558139 0.0333333611 0
vt 0.0333333351 0.0333333611 0
vt 0.0232558139 0.5 0
vt -6.99569276e-17 0.0333333611 0
vt 0.466666669 0.5 0
vt 0.0232558139 0.966666639 0
vt 0.5 0.966666639 0
vt 0.17364341 0.906976759 0
vt 0.243410856 0.976744175 0
vt 0.640310049 0.906976759 0
vt 0.710077524 0.976744175 0
vt 0.176829264 0.926829278 0
vt 0.19773519 0.94773519 0
vt 0.25 1 0
vt 0.75 1 0
vt 0.607142866 1 0
vt 0.943410873 0.976744175 0
vt 0.476744175 0.976744175 0
vt 0.533972144 0.926829278 0
vt 0.676829278 0.926829278 0
vt 0.25 0.75 0
vt 0.472222209 0.527777791 0
vt 0.729094088 0.979094088 0
vt 0.443410844 0.976744175 0
vt 0.966666639 0.966666639 0
vt 0.25 0.5 0
vt 0.243410841 0.976744175 0
vt 0.0100775193 0.976744175 0
vt 0 0.966666639 0
vt 0.714285731 0.714285731 0
vt 0.285714298 1 0
vt 0 0.714285731 0
vt 0.444444448 0.444444418 0
vt 0 0.571428537 0
vt 0.428571433 0.428571403 0
vt 0.0714285746 0.5 0
vt 0 0.444444418 0
vt 0 0.428571403 0

# 6 vertex normals
vn -1 0 0
vn 0 -1 0
vn 0 0 1
vn 1 0 0
vn 0 1 0
vn 0 0 -1

# Mesh 'meshes[0]' with 76 faces
g meshes[0]
f  1/1/1 2/2/1 3/3/1
f  1/1/2 4/2/2 2/3/2
f  2/1/3 5/2/3 6/3/3
f  7/1/3 8/4/3 9/5/3
f  7/1/4 9/6/4 10/7/4
f  3/3/5 9/8/5 8/9/5
f  3/3/5 10/10/5 9/8/5
f  7/1/3 11/6/3 8/4/3
f  3/3/5 8/11/5 11/12/5
f  1/1/6 3/2/6 12/3/6
f  7/1/5 13/3/5 14/2/5
f  7/1/4 10/7/4 13/2/4
f  2/1/1 6/2/1 3/3/1
f  3/3/5 6/1/5 10/10/5
f  13/1/4 10/6/4 15/5/4
f  10/10/5 6/1/5 15/13/5
f  13/1/6 15/6/6 16/7/6
f  15/13/5 6/1/5 16/14/5
f  2/3/2 4/1/2 17/15/2
f  1/2/6 12/3/6 4/1/6
f  4/1/2 18/16/2 17/15/2
f  4/1/2 5/2/2 18/16/2
f  2/3/2 17/15/2 19/17/2
f  2/3/2 19/17/2 5/2/2
f  5/2/2 20/18/2 18/16/2
f  5/2/2 19/17/2 20/18/2
f  4/2/4 21/3/4 5/1/4
f  7/2/3 14/1/3 11/7/3
f  13/3/5 22/19/5 14/1/5
f  3/3/5 11/12/5 12/2/5
f  14/1/5 22/19/5 23/20/5
f  14/1/5 23/20/5 24/21/5
f  14/2/1 24/22/1 25/7/1
f  4/1/4 12/2/4 21/3/4
f  25/7/1 24/22/1 26/23/1
f  11/7/3 14/1/3 27/6/3
f  11/12/5 27/24/5 12/2/5
f  14/1/1 25/6/1 27/5/1
f  12/2/5 27/24/5 25/25/5
f  13/3/5 28/26/5 22/19/5
f  13/3/5 29/27/5 28/26/5
f  13/1/6 16/7/6 30/2/6
f  13/3/5 30/2/5 29/27/5
f  6/3/3 5/1/3 21/2/3
f  6/1/5 21/2/5 16/14/5
f  25/7/1 26/23/1 31/21/1
f  32/28/1 33/29/1 31/21/1
f  30/2/5 34/30/5 29/27/5
f  30/2/5 31/22/5 34/30/5
f  30/1/1 32/28/1 31/21/1
f  33/29/1 25/7/1 31/21/1
f  12/2/5 25/25/5 21/1/5
f  21/1/5 25/25/5 35/31/5
f  16/6/6 36/4/6 30/1/6
f  16/14/5 21/2/5 36/32/5
f  30/1/1 37/6/1 32/28/1
f  30/1/6 36/4/6 37/5/6
f  37/6/1 38/33/1 32/28/1
f  21/1/5 35/31/5 38/34/5
f  37/35/5 21/1/5 38/34/5
f  36/36/5 21/1/5 37/35/5
f  17/2/3 18/1/3 23/37/3
f  18/2/1 20/1/1 26/37/1
f  22/38/3 17/1/3 23/39/3
f  24/39/3 23/37/3 18/1/3
f  18/1/1 26/39/1 24/38/1
f  28/37/4 17/1/4 22/39/4
f  19/2/4 17/1/4 28/37/4
f  19/1/6 34/37/6 20/2/6
f  26/37/1 20/1/1 31/39/1
f  19/1/4 28/39/4 29/38/4
f  19/1/6 29/39/6 34/37/6
f  20/1/6 34/39/6 31/38/6
f  33/40/1 32/41/1 35/42/1
f  25/43/1 33/44/1 35/45/1
f  35/42/1 32/41/1 38/45/1

