# File produced by Open Asset Import Library (http://www.assimp.sf.net)
# (assimp v5.2.0)

# 102 vertex positions
v  106.5 0 -78
v  104.469696 0 -59.9024429
v  104.469696 0 -73.9024353
v  39.5 0 -78
v  100.409088 0 -73.9024353
v  100.409088 0 -72.146347
v  100.409088 0 -71.9544296
v  104.469696 2 -75.9512177
v  103.96212 2 -73.9024353
v  104.469696 2 -73.9024353
v  103.353027 2 -73.9024353
v  102.946968 2 -73.9024353
v  104.469696 2.54053998 -73.9024353
v  106.5 4.99998999 -78
v  41.530304 2 -75.9512177
v  101.31144 2 -73.9024353
v  100.409088 2 -73.9024353
v  100.409088 2 -71.923111
v  106.5 0 -36
v  100.409088 0 -42.734108
v  100.409088 2 -54.4008293
v  45.5909081 2 -73.9024353
v  100.409088 2 -54.3905945
v  45.5909081 2 -73.6593704
v  100.409088 2 -54.3861809
v  100.409088 2 -47.6097565
v  45.5909081 0 -73.9024353
v  42.8838234 0 -73.9024353
v  41.530304 0 -73.9024353
v  44.9324188 2 -73.9024353
v  42.4326401 2 -73.9024353
v  41.530304 0 -59.9024429
v  45.5909081 0 -71.2658997
v  45.5909081 2 -66.3902588
v  41.530304 2 -73.9024353
v  45.1602325 2 -73.9024353
v  45.5909081 2 -73.5059204
v  45.5909081 2 -71.2807083
v  43.0530319 2 -73.9024353
v  42.4439392 2 -73.9024353
v  42.0378799 2 -73.9024353
v  41.6251678 2 -73.9024353
v  41.530304 2.23164988 -73.9024353
v  39.5 0 -36
v  45.5909081 0 -42.0455856
v  100.409088 2 -42.7193069
v  100.409088 2 -40.4941025
v  100.409088 2 -40.3406372
v  39.5 4.99998999 -78
v  41.530304 2 -47.6097565
v  104.469696 5 -75.9512177
v  103.231667 5 -75.9512177
v  104.469696 5 -73.9024353
v  60.4121323 5 -75.9512177
v  104.469696 5 -64.5804977
v  106.5 4.99998999 -36
v  41.530304 5 -75.9512177
v  41.530304 5 -73.9024353
v  41.530304 5 -58.8780518
v  41.530304 4.24932003 -56.0584488
v  41.530304 5 -49.4195175
v  100.409088 0 -40.0975494
v  100.409088 2 -42.7165184
v  104.469696 2 -38.0487823
v  100.409088 2 -40.0975494
v  104.469696 0 -40.0975647
v  104.469696 0 -40.0975494
v  103.116165 0 -40.0975494
v  104.469696 2 -40.0975494
v  104.408173 2 -40.0975494
v  104.374817 2 -40.0975494
v  103.96212 2 -40.0975494
v  103.567337 2 -40.0975494
v  103.556061 2 -40.0975494
v  102.946968 2 -40.0975494
v  101.067581 2 -40.0975494
v  104.469696 2.23164988 -40.0975494
v  100.839767 2 -40.0975494
v  41.530304 0 -40.0975647
v  45.5909081 2 -59.5991707
v  45.5909081 2 -42.0769119
v  45.5909081 0 -40.0975494
v  42.8838234 0 -40.0975494
v  45.5909081 2 -41.9448357
v  41.530304 0 -40.0975494
v  44.6885376 2 -40.0975494
v  42.0378685 2 -40.0975494
v  39.5 4.99998999 -36
v  45.5909081 2 -42.0230064
v  45.5909081 2 -40.0975494
v  41.530304 2 -38.0487823
v  41.530304 2 -40.0975494
v  41.530304 2.54052997 -40.0975494
v  41.6604347 2 -40.0975494
v  104.469696 5 -55.1219482
v  104.469696 5 -40.0975494
v  85.5878448 5 -38.0487823
v  104.469696 4.24932003 -57.9415741
v  104.469696 5 -38.0487823
v  41.530304 5 -40.0975494
v  41.530304 5 -38.0487823
v  42.7683182 5 -38.0487823

# 168 UV coordinates
vt 0 1 0
vt 0.430894315 0.969696999 0
vt 0.097560972 0.969696999 0
vt 0 0 0
vt 0.097560972 0.909090877 0
vt 0.139372811 0.909090877 0
vt 0.143942416 0.909090877 0
vt 0.0540540554 0.991935492 0
vt 0.0540540665 1 0
vt 0.0540540554 0.982258081 0
vt 0.0540540554 0.975806475 0
vt 1 1 0
vt 0.945945919 1 0
vt 0.945945919 0.945945919 0
vt 0.0540540554 0.949820817 0
vt 0.0540540554 0.935483873 0
vt 0.106275767 0.935483873 0
vt 0.839664161 0.909090877 0
vt 0.568575382 0.935483873 0
vt 0.0540540628 0.0645161271 0
vt 0.568845212 0.935483873 0
vt 0.0604672469 0.0645161271 0
vt 0.568961799 0.935483873 0
vt 0.747747838 0.935483873 0
vt 0.00665190024 0.0975610018 0
vt 0.0470559262 0.0975609422 0
vt 0.0672579482 0.0975609422 0
vt 0.162161991 0.777777791 0
vt 0.666666687 1 0
vt 0.777777791 0.777777791 0
vt 0.400591284 0.430894315 0
vt 0.922006965 1 0
vt 0 0.777777791 0
vt 0.414141327 1 0
vt 0.106060401 0.777777791 0
vt 0.215031683 0.992809474 0
vt 0.222222224 1 0
vt 0.21049203 0.988269806 0
vt 0.144667014 0.92244482 0
vt 0.625 0.777777791 0
vt 0.774999619 0.777777791 0
vt 7.01770608e-16 0.777777791 0
vt 0.0972222239 0.875 0
vt 0.19885774 0.976635516 0
vt 0.0540540665 0.0576735139 0
vt 0.0540540665 0.0540540814 0
vt 0.0298605058 0.0540540218 0
vt -1.38908004e-16 0.0540540814 0
vt 0.0395379253 0.0540540218 0
vt 0.0397171602 0.0540540218 0
vt 0.0459895395 0.0540540218 0
vt 0.0525466651 0.0540540218 0
vt 0.054054074 0.97683394 0
vt 0.069426775 0.160335839 0
vt 0.0576256663 1 0
vt 0.0645161271 0.0645161271 0
vt 0.876775086 0.935483873 0
vt -9.26053379e-17 0.0645161271 0
vt 0.0587087907 0.123224914 0
vt -8.67530562e-16 0.935483873 0
vt 0.187736139 0.252252281 0
vt 0.00404888205 0.939532757 0
vt 0.747747898 1 0
vt 0 0.945945919 0
vt 0.300000012 1 0
vt 0 0.699999988 0
vt 0.0196695514 0.699999988 0
vt 0.245945916 0.945945919 0
vt 7.94922058e-18 0.0487805009 0
vt 0.0184774566 0.0487805009 0
vt 0.0672579855 0.0975610018 0
vt 0.048780486 0.687878788 0
vt 0.048780486 0.0487805009 0
vt 0.289209157 0.319512188 0
vt 0.699999988 0.699999988 0
vt 0.054054074 0.699999988 0
vt 0.048780486 0.969696999 0
vt 0.0975609943 0.969696999 0
vt 0 0.752037764 0
vt 0 0.444444418 0
vt 0.444444448 0.444444418 0
vt 0.455284715 0.969696999 0
vt 0.524842024 0.775067687 0
vt 0.527853012 0.527853012 0
vt 0.680487812 0.969696999 0
vt 0.902439177 0.909090877 0
vt 0.876848698 0.935483873 0
vt 0.935483873 0.935483873 0
vt 0.0104622766 0.945946157 0
vt 0.902439058 0.969696999 0
vt 0.902439237 0.969696999 0
vt 0.902439237 0.949495018 0
vt 0.945946157 1 0
vt 0.945946157 0.999022484 0
vt 0.945946157 0.998492599 0
vt 0.945946157 0.991935492 0
vt 0.945946157 0.985663116 0
vt 0.945946157 0.985483944 0
vt 0.945946157 0.975806534 0
vt 0.945946157 0.945946157 0
vt 0.054053843 0.976834059 0
vt 0.0540538579 1 0
vt -5.35089366e-18 0.945946157 0
vt 0.003619442 0.945946157 0
vt 0.765148461 0.856057584 0
vt 0.999999762 1 0
vt 0.366908491 0.431424618 0
vt 0.829208076 0.893724203 0
vt 0.576887548 0.777777791 0
vt 0.0585518479 0.777777791 0
vt 0.811530113 0.902439237 0
vt 0.851934254 0.902439237 0
vt 0.872135997 0.902438998 0
vt 0.0546450391 0.777777791 0
vt 0.872136176 0.902439237 0
vt 0.333331734 1 0
vt 0.124999523 0.777777791 0
vt 0.830630004 0.895145953 0
vt 0.832692564 0.897208691 0
vt 0.88143003 0.945946157 0
vt 0.895766973 0.945946157 0
vt 0.937881649 0.945946157 0
vt 0.0569577888 0.777777791 0
vt 0.282282054 1 0
vt 0.0320511796 0.777777791 0
vt 0.943878293 0.945946097 0
vt 0.514412642 0.544715643 0
vt 0.054053843 0.699999988 0
vt 0.524841726 0.775067806 0
vt 0.920916498 0.951219499 0
vt 0.639098287 0.951219499 0
vt 0 0.527853012 0
vt 0.279797673 0.724242091 0
vt -1.31976691e-15 0.444444418 0
vt 0.555555582 1 0
vt 7.68922944e-18 0.945946157 0
vt 0.245946169 0.945946157 0
vt 0 0.951219499 0
vt 0.951219499 0.969696999 0
vt 0.951219499 0.951219499 0
vt 0.375 0.777777791 0
vt 0.0519480519 1 0
vt 0.058551617 0.777777791 0
vt 0.0576254353 1 0
vt 0.125 0.777777791 0
vt 0.274999619 0.777777791 0
vt 0.279798269 0.724242687 0
vt 0.585858643 1 0
vt 0.527853131 0.527853131 0
vt 0.577190101 0.777777791 0
vt 0.577320874 0.777777791 0
vt 0.282282323 1 0
vt 0 0.527853131 0
vt 0.922006726 1 0
vt 2.31193781e-07 1 0
vt 0.666668236 1 0
vt 0.162165374 0.777777791 0
vt 0.144666776 0.922444582 0
vt 0.144749314 0.922527075 0
vt 0 0.752037883 0
vt 0.207070768 0.984848559 0
vt 0.198857829 0.976635575 0
vt 0.0972227007 0.875000477 0
vt 0.775000453 0.777777791 0
vt 0.625001431 0.777777791 0
vt 0.210491791 0.988269567 0
vt 0.215031445 0.992809236 0
vt 0.106063902 0.777777791 0

# 10 vertex normals
vn 0 -1 0
vn 0 1 0
vn -1 0 0
vn 0 0 -1
vn 0 0 1
vn 1 0 0
vn 0 1 -4.88095338e-06
vn 4.92537083e-06 1 0
vn -4.9253731e-06 1 0
vn 0 1 4.88095111e-06

# Mesh 'meshes[0]' with 208 faces
g meshes[0]
f  1/1/1 2/2/1 3/3/1
f  1/1/1 3/3/1 4/4/1
f  4/4/1 3/3/1 5/5/1
f  4/4/1 5/5/1 6/6/1
f  4/4/1 6/6/1 7/7/1
f  8/1/2 9/8/2 10/9/2
f  8/1/2 11/10/2 9/8/2
f  8/1/2 12/11/2 11/10/2
f  8/12/3 10/13/3 13/14/3
f  1/1/4 4/12/4 14/4/4
f  8/1/2 15/4/2 12/11/2
f  15/4/2 16/15/2 12/11/2
f  15/4/2 17/16/2 16/15/2
f  15/4/2 18/17/2 17/16/2
f  1/1/1 19/12/1 2/2/1
f  4/4/1 7/7/1 20/18/1
f  15/4/2 21/19/2 18/17/2
f  22/20/2 23/21/2 21/19/2
f  24/22/2 25/23/2 23/21/2
f  24/22/2 26/24/2 25/23/2
f  4/4/1 27/25/1 28/26/1
f  4/4/1 28/26/1 29/27/1
f  27/1/5 30/28/5 28/29/5
f  28/29/5 31/30/5 29/12/5
f  4/4/1 29/27/1 32/31/1
f  27/12/3 33/32/3 34/30/3
f  29/1/6 35/33/6 32/34/6
f  15/4/2 22/20/2 21/19/2
f  27/1/5 22/33/5 36/35/5
f  27/1/3 24/36/3 22/37/3
f  27/1/5 36/35/5 30/28/5
f  27/1/3 37/38/3 24/36/3
f  27/1/3 38/39/3 37/38/3
f  28/29/5 30/28/5 39/40/5
f  28/29/5 39/40/5 40/41/5
f  28/29/5 40/41/5 31/30/5
f  29/1/5 31/42/5 41/43/5
f  29/1/5 41/43/5 42/44/5
f  29/1/5 42/44/5 35/37/5
f  15/4/2 36/45/2 22/20/2
f  15/4/2 30/46/2 36/45/2
f  15/4/2 39/47/2 30/48/2
f  15/4/2 40/49/2 39/47/2
f  15/4/2 31/50/2 40/49/2
f  15/4/2 41/51/2 31/50/2
f  15/4/2 42/52/2 41/51/2
f  15/4/2 35/46/2 42/52/2
f  15/1/6 43/53/6 35/9/6
f  27/1/3 34/33/3 38/39/3
f  4/4/1 19/1/1 27/25/1
f  27/25/1 19/1/1 33/54/1
f  4/4/1 32/31/1 44/12/1
f  33/32/3 45/55/3 34/30/3
f  22/20/2 24/22/2 23/21/2
f  24/22/2 37/56/2 46/57/2
f  37/58/2 38/59/2 47/60/2
f  38/59/2 34/61/2 48/62/2
f  4/1/3 44/12/3 49/4/3
f  35/9/6 43/53/6 50/63/6
f  35/33/6 50/30/6 32/34/6
f  8/1/3 13/64/3 51/65/3
f  8/1/5 51/66/5 52/67/5
f  51/65/3 13/64/3 53/68/3
f  14/4/7 52/69/7 51/70/7
f  14/4/8 51/70/8 53/71/8
f  14/4/7 54/72/7 52/73/7
f  14/4/8 53/71/8 55/74/8
f  8/1/5 52/67/5 54/75/5
f  1/1/6 14/12/6 56/4/6
f  14/4/8 55/74/8 56/12/8
f  8/1/5 54/75/5 15/12/5
f  4/1/4 49/12/4 14/4/4
f  15/1/6 57/66/6 43/53/6
f  14/4/7 49/1/7 54/72/7
f  15/1/5 54/66/5 57/65/5
f  43/53/6 57/66/6 58/76/6
f  54/72/7 49/1/7 57/77/7
f  49/1/9 58/78/9 57/77/9
f  43/79/6 58/80/6 59/81/6
f  49/1/9 59/82/9 58/78/9
f  43/53/6 60/83/6 50/63/6
f  43/79/6 59/81/6 60/84/6
f  49/1/9 61/85/9 59/82/9
f  4/4/1 20/18/1 62/86/1
f  4/4/1 62/86/1 19/12/1
f  1/12/6 56/4/6 19/1/6
f  24/22/2 46/57/2 26/24/2
f  37/56/2 63/87/2 46/57/2
f  37/56/2 47/88/2 63/87/2
f  38/59/2 48/62/2 47/60/2
f  34/61/2 64/1/2 65/89/2
f  34/61/2 65/89/2 48/62/2
f  19/12/1 66/90/1 2/2/1
f  19/12/1 67/91/1 66/90/1
f  19/12/1 68/92/1 67/91/1
f  19/12/1 62/86/1 68/92/1
f  64/12/2 69/93/2 70/94/2
f  64/12/2 70/94/2 71/95/2
f  64/12/2 71/95/2 72/96/2
f  72/96/2 73/97/2 64/12/2
f  64/12/2 73/97/2 74/98/2
f  64/12/2 74/98/2 75/99/2
f  64/12/2 75/99/2 76/100/2
f  64/1/3 77/101/3 69/102/3
f  64/1/2 76/103/2 78/104/2
f  64/1/2 78/104/2 65/89/2
f  33/54/1 19/1/1 45/105/1
f  32/34/6 50/30/6 79/106/6
f  34/61/2 80/107/2 64/1/2
f  80/107/2 81/108/2 64/1/2
f  34/30/3 45/55/3 80/109/3
f  80/109/3 45/55/3 81/110/3
f  19/1/1 82/111/1 45/105/1
f  19/1/1 83/112/1 82/111/1
f  19/1/1 44/12/1 83/112/1
f  32/31/1 79/113/1 44/12/1
f  45/55/3 82/1/3 84/114/3
f  50/30/6 85/12/6 79/106/6
f  83/112/1 44/12/1 85/115/1
f  79/113/1 85/115/1 44/12/1
f  82/12/4 83/116/4 86/30/4
f  83/116/4 85/1/4 87/117/4
f  19/12/5 88/4/5 44/1/5
f  64/1/2 81/108/2 89/118/2
f  64/1/2 89/118/2 84/119/2
f  64/1/2 84/119/2 90/120/2
f  64/1/2 90/120/2 86/121/2
f  64/1/2 86/121/2 87/122/2
f  64/1/2 87/122/2 91/12/2
f  45/55/3 89/123/3 81/110/3
f  45/55/3 84/114/3 89/123/3
f  50/33/6 92/37/6 85/1/6
f  50/33/6 93/124/6 92/37/6
f  82/1/3 90/33/3 84/114/3
f  82/1/4 86/42/4 90/37/4
f  83/116/4 87/117/4 86/30/4
f  85/1/4 94/125/4 87/117/4
f  85/1/4 92/33/4 94/125/4
f  87/122/2 94/126/2 91/12/2
f  94/126/2 92/100/2 91/12/2
f  92/93/6 93/100/6 91/12/6
f  56/12/8 55/74/8 95/127/8
f  64/1/3 96/128/3 77/101/3
f  64/12/4 91/1/4 97/75/4
f  19/1/5 56/12/5 88/4/5
f  96/128/3 98/129/3 77/101/3
f  56/12/8 95/127/8 96/115/8
f  64/1/3 99/66/3 96/128/3
f  64/1/4 97/66/4 99/65/4
f  99/130/8 56/12/8 96/115/8
f  99/130/10 97/131/10 56/12/10
f  56/12/10 97/131/10 88/1/10
f  49/4/3 44/1/3 88/12/3
f  50/33/6 60/132/6 61/133/6
f  59/134/6 61/133/6 60/132/6
f  49/1/9 88/12/9 61/85/9
f  50/33/6 100/135/6 93/124/6
f  91/1/6 93/136/6 101/65/6
f  91/1/4 102/67/4 97/75/4
f  50/33/6 61/133/6 100/135/6
f  61/85/9 88/12/9 100/91/9
f  93/136/6 100/137/6 101/65/6
f  91/1/4 101/66/4 102/67/4
f  97/131/10 102/138/10 88/1/10
f  100/91/9 88/12/9 101/139/9
f  102/140/10 101/139/10 88/12/10
f  12/141/5 5/12/5 3/1/5
f  6/142/6 5/1/6 17/33/6
f  6/142/6 18/143/6 7/144/6
f  9/145/5 3/1/5 10/33/5
f  11/146/5 3/1/5 9/145/5
f  11/146/5 12/141/5 3/1/5
f  12/141/5 16/30/5 5/12/5
f  5/1/5 16/42/5 17/37/5
f  6/142/6 17/33/6 18/143/6
f  55/147/3 10/37/3 3/1/3
f  7/144/6 18/143/6 21/109/6
f  2/148/3 98/149/3 3/12/3
f  7/144/6 23/150/6 25/151/6
f  7/144/6 21/109/6 23/150/6
f  7/144/6 25/151/6 26/30/6
f  10/37/3 55/147/3 13/152/3
f  55/147/3 53/135/3 13/152/3
f  98/153/3 55/147/3 3/1/3
f  55/147/3 98/153/3 95/80/3
f  7/144/6 26/30/6 20/154/6
f  2/148/3 66/155/3 98/149/3
f  20/154/6 26/30/6 62/12/6
f  69/33/3 66/155/3 67/1/3
f  68/156/4 73/30/4 67/12/4
f  68/156/4 62/1/4 76/157/4
f  46/158/6 62/1/6 26/33/6
f  63/159/6 62/1/6 46/158/6
f  66/155/3 77/160/3 98/149/3
f  70/161/4 69/37/4 67/1/4
f  70/161/4 67/1/4 71/162/4
f  71/162/4 67/1/4 72/163/4
f  72/163/4 67/1/4 73/42/4
f  68/156/4 74/164/4 73/30/4
f  68/156/4 75/165/4 74/164/4
f  68/156/4 76/157/4 75/165/4
f  66/155/3 69/33/3 77/160/3
f  63/159/6 47/166/6 62/1/6
f  48/167/6 62/1/6 47/166/6
f  78/168/4 76/157/4 62/1/4
f  48/167/6 65/37/6 62/1/6
f  78/168/4 62/1/4 65/33/4
f  98/149/3 96/80/3 95/81/3

