# File produced by Open Asset Import Library (http://www.assimp.sf.net)
# (assimp v5.2.0)

# 84 vertex positions
v  106.5 2 33
v  106.5 0 33
v  106.5 0 -33
v  106.5 2 -33
v  68.5 2 -33
v  68.5 0 -33
v  68.5 0 33
v  68.5 2 33
v  73.5 0 -33
v  73.5 5 -33
v  78.65625 2 -33
v  86.6999969 2 -33
v  75.5625 2 -31
v  78.65625 2 -31
v  78.65625 3.07141995 -31
v  73.5 0 33
v  75.5625 2 31
v  97.0331268 2 -31
v  78.65625 2 33
v  73.5 5 33
v  82.5131226 2 33
v  78.65625 2.45918012 31
v  78.65625 2 31
v  104.4375 2 -31
v  82.9668732 2 31
v  93.3000031 2 33
v  75.5625 5 -31
v  75.5625 5 -28.875
v  78.65625 5 -33
v  78.65625 5 -32.0384598
v  78.65625 5 -31
v  75.5625 5 12.3999901
v  78.65625 3.70000005 33
v  75.5625 5 31
v  78.65625 3.9000001 31
v  78.65625 4.21875 33
v  78.65625 5 32.5370293
v  78.65625 5 33
v  78.65625 5 31
v  97.4868774 2 -33
v  101.34375 2 -31
v  101.34375 2 -33
v  101.34375 2.45918012 -31
v  106.5 5 -33
v  101.34375 2 31
v  106.5 5 33
v  104.4375 2 31
v  101.34375 2 33
v  101.34375 3.07141995 31
v  101.34375 3.9000001 -31
v  101.34375 3.70000005 -33
v  104.4375 5 -31
v  104.4375 5 -12.3999901
v  101.34375 4.21875 -33
v  101.34375 5 -31
v  101.34375 5 -33
v  101.34375 5 -32.5370293
v  104.4375 5 31
v  104.4375 5 28.875
v  101.34375 5 33
v  101.34375 5 31
v  101.34375 5 32.0384598
v  57.5 0 -33
v  57.5 0 33
v  57.5 6 -33
v  74.5 0 -33
v  74.5 0 33
v  57.5 6 33
v  57.9655113 6 -28.5
v  58.6590881 6 -28.5
v  62.9047508 6 -28.5
v  57.9655113 6 -10.4672604
v  74.5 6 -33
v  57.9655113 6 28.5
v  59.6206818 6 28.5
v  64.0344772 6 28.5
v  74.5 6 33
v  64.0344772 6 -28.5
v  64.0344772 6 -7.63083982
v  64.0344772 6 19.5872593
v  67 3.03448009 -28.5
v  63.9655113 0 -28.5
v  67 3.03448009 28.5
v  63.9655113 0 28.5

# 102 UV coordinates
vt 0 0 0
vt 0 1 0
vt 1 1 0
vt 1 0 0
vt 0.243750006 0.84375 0
vt 7.1054272e-17 0.600000024 0
vt 0.892857134 1 0
vt 0.892857134 0.892857134 0
vt 0.107142858 1 0
vt 0.600000024 0.600000024 0
vt 0.743571401 1 0
vt 0.15625 0.600000024 0
vt 0.273124993 0.600000024 0
vt 0.107142866 0.954081655 0
vt 0.107142858 0.107142866 0
vt 0.25642857 0.256428599 0
vt -2.78585484e-16 0.892857134 0
vt 0.300000012 1 0
vt 0 0.699999988 0
vt 0.0342741944 0.699999988 0
vt 0.84375 0.84375 0
vt 0 0.0625 0
vt 0.0321969688 0.0625 0
vt 0.141681209 0.15625 0
vt 0.15625 0.15625 0
vt 0.192857176 0.892857134 0
vt 0.125946954 0.15625 0
vt 0.699999988 0.699999988 0
vt 0.0625 0.687878788 0
vt 0.0625 0.0625 0
vt 0.15625 0.25999999 0
vt 0.107142866 0.810000002 0
vt 0.0625 0.969696999 0
vt 0.156250015 0.992985427 0
vt 0 0.15625 0
vt 0.15625 1 0
vt 0.107142866 0.699999988 0
vt 0.156250015 0.969696999 0
vt 0 0.600000024 0
vt 0.907196999 0.9375 0
vt 0.836735368 0.84375 0
vt 0.813446999 0.84375 0
vt 0.625378788 0.9375 0
vt 0 0.9375 0
vt 0.9375 0.969696999 0
vt 0.84375 0.969696999 0
vt 0.84375 0.985431254 0
vt 0.84375 1 0
vt 0.9375 0.9375 0
vt 0.189999998 0.892857194 0
vt 0.189999998 1 0
vt 0.170000002 1 0
vt 0.354545444 0.829999983 0
vt 0 0.829999983 0
vt 0 0.810000002 0
vt 0.810000002 0.810000002 0
vt 0.810000002 0.954081655 0
vt 0.829999983 1 0
vt 0.810000002 1 0
vt 0 0.170000017 0
vt 0.170000002 0.170000017 0
vt 0 0.189999998 0
vt 0.189999998 0.189999998 0
vt 0.475454539 0.645454526 0
vt 3.12685786e-16 0.189999998 0
vt -2.40527526e-16 0.170000017 0
vt 0.179615378 0.699999988 0
vt 0.170000002 0.699999988 0
vt 0.189999998 0.699999988 0
vt 0.829999983 0.829999983 0
vt 0.051874999 0.829999983 0
vt 0.125370368 0.825370371 0
vt 0.109999999 0.810000002 0
vt 0.129999995 0.829999983 0
vt -1.92422023e-16 0.810000002 0
vt 3.84844046e-16 0.829999983 0
vt 0.0273829829 0.0681818128 0
vt 0.0681818202 0.0681818128 0
vt -1.50271903e-16 0.0681818128 0
vt 0.249745056 0.317926884 0
vt 0.0273829829 0.341405094 0
vt 0.0273829829 0.931818187 0
vt 0.124746166 0.931818187 0
vt 0.384381205 0.931818187 0
vt 0.316199362 0.384381175 0
vt 9.24750205e-17 0.384381175 0
vt 0.384381205 0.384381175 0
vt 0.384381205 0.796776772 0
vt 0.683636248 0.683636189 0
vt 0.298078477 0.885716975 0
vt 0.316363782 1 0
vt 0.683636248 1 0
vt -1.99233042e-16 0.683636189 0
vt 0.186147407 0.186147392 0
vt 0.156363755 0.156363726 0
vt 0 0.186147392 0
vt 0.477510661 0.843636274 0
vt 0.843636274 0.843636274 0
vt 0.727272749 0.727272749 0
vt 0 0.727272749 0
vt 1.99232843e-16 0.843636274 0
vt 0.843636274 1 0

# 9 vertex normals
vn 1 0 0
vn -1 0 0
vn 0 1 0
vn 0 -1 0
vn 0 0 1
vn 0 0 -1
vn -0.707105637 0.707107961 0
vn 0.707106769 0.707106769 0
vn -0.707106769 -0.707106769 0

# Mesh 'meshes[0]' with 12 faces
g meshes[0]
f  1/1/1 2/2/1 3/3/1
f  1/1/1 3/3/1 4/4/1
f  5/1/2 6/2/2 7/3/2
f  5/1/2 7/3/2 8/4/2
f  5/1/3 8/2/3 1/3/3
f  5/1/3 1/3/3 4/4/3
f  7/1/4 6/2/4 3/3/4
f  7/1/4 3/3/4 2/4/4
f  8/1/5 7/2/5 2/3/5
f  8/1/5 2/3/5 1/4/5
f  4/1/6 3/2/6 6/3/6
f  4/1/6 6/3/6 5/4/6

# Mesh 'meshes[1]' with 108 faces
g meshes[1]
f  9/2/6 10/3/6 11/5/6
f  9/2/6 11/5/6 12/6/6
f  13/3/5 14/7/5 15/8/5
f  9/2/2 16/3/2 10/1/2
f  13/2/3 17/1/3 14/9/3
f  9/3/6 12/10/6 3/2/6
f  9/2/4 3/3/4 16/1/4
f  17/1/3 18/11/3 14/9/3
f  16/2/5 19/12/5 20/1/5
f  16/2/5 21/13/5 19/12/5
f  17/2/6 22/14/6 23/9/6
f  17/1/3 23/15/3 24/2/3
f  23/15/3 25/16/3 24/2/3
f  16/2/5 26/10/5 21/13/5
f  13/2/5 15/17/5 27/18/5
f  13/2/1 27/19/1 28/20/1
f  10/3/6 29/21/6 11/5/6
f  10/1/3 28/22/3 27/23/3
f  10/1/3 27/23/3 30/24/3
f  10/1/3 30/24/3 29/25/3
f  27/18/5 15/17/5 31/26/5
f  27/23/3 31/27/3 30/24/3
f  13/2/1 28/20/1 32/28/1
f  10/1/3 32/29/3 28/30/3
f  13/2/1 32/28/1 17/3/1
f  16/2/2 20/3/2 10/1/2
f  20/1/5 19/12/5 33/31/5
f  17/2/6 34/19/6 35/32/6
f  17/2/6 35/32/6 22/14/6
f  10/1/3 20/2/3 32/29/3
f  17/2/1 32/19/1 34/18/1
f  20/1/5 33/31/5 36/25/5
f  32/29/3 20/2/3 34/33/3
f  20/2/3 37/34/3 34/33/3
f  20/1/5 36/35/5 38/25/5
f  20/2/3 38/36/3 37/34/3
f  34/19/6 39/37/6 35/32/6
f  34/33/3 37/34/3 39/38/3
f  3/2/6 12/10/6 40/13/6
f  41/7/3 18/11/3 17/1/3
f  24/3/3 41/7/3 17/1/3
f  3/2/6 40/13/6 42/12/6
f  24/2/5 43/14/5 41/9/5
f  3/2/6 42/12/6 44/1/6
f  16/1/4 3/2/4 2/3/4
f  16/2/5 2/3/5 26/10/5
f  25/16/3 45/8/3 24/2/3
f  3/3/1 46/1/1 2/2/1
f  45/8/3 47/3/3 24/2/3
f  2/2/5 48/5/5 26/39/5
f  47/3/6 45/7/6 49/8/6
f  2/2/5 46/3/5 48/5/5
f  24/2/5 50/32/5 43/14/5
f  44/1/6 42/12/6 51/31/6
f  24/2/5 52/19/5 50/32/5
f  24/3/2 47/2/2 53/28/2
f  3/2/1 44/3/1 46/1/1
f  44/1/6 51/31/6 54/25/6
f  24/2/2 53/19/2 52/18/2
f  52/19/5 55/37/5 50/32/5
f  44/1/6 54/35/6 56/25/6
f  52/40/3 57/41/3 55/42/3
f  44/3/3 56/21/3 57/41/3
f  52/40/3 44/3/3 57/41/3
f  52/40/3 53/43/3 44/3/3
f  44/3/3 53/43/3 46/2/3
f  47/2/6 49/17/6 58/18/6
f  47/2/2 59/20/2 53/28/2
f  53/43/3 59/44/3 46/2/3
f  46/3/5 60/21/5 48/5/5
f  58/18/6 49/17/6 61/26/6
f  47/2/2 58/19/2 59/20/2
f  58/45/3 61/46/3 62/47/3
f  46/3/3 62/47/3 60/48/3
f  58/45/3 62/47/3 46/3/3
f  59/49/3 58/45/3 46/3/3
f  15/50/1 14/51/1 11/52/1
f  12/53/3 11/54/3 14/55/3
f  12/53/3 14/55/3 18/56/3
f  22/57/1 19/58/1 23/59/1
f  19/60/3 21/61/3 23/62/3
f  23/62/3 21/61/3 25/63/3
f  26/64/3 25/65/3 21/66/3
f  15/50/1 11/52/1 30/67/1
f  29/68/1 30/67/1 11/52/1
f  15/50/1 30/67/1 31/69/1
f  22/57/1 33/70/1 19/58/1
f  22/57/1 35/56/1 33/70/1
f  36/71/1 33/54/1 35/55/1
f  37/72/1 36/71/1 35/55/1
f  37/72/1 35/55/1 39/73/1
f  37/72/1 38/74/1 36/71/1
f  12/53/3 18/56/3 40/70/3
f  18/75/3 41/51/3 40/76/3
f  40/76/3 41/51/3 42/52/3
f  43/57/2 42/58/2 41/59/2
f  26/64/3 45/59/3 25/65/3
f  26/64/3 48/58/3 45/59/3
f  49/50/2 45/51/2 48/52/2
f  43/57/2 51/70/2 42/58/2
f  43/57/2 50/56/2 51/70/2
f  54/71/2 51/54/2 50/55/2
f  57/72/2 54/71/2 50/55/2
f  57/72/2 50/55/2 55/73/2
f  56/74/2 54/71/2 57/72/2
f  49/50/2 48/52/2 62/67/2
f  60/68/2 62/67/2 48/52/2
f  49/50/2 62/67/2 61/69/2

# Mesh 'meshes[2]' with 40 faces
g meshes[2]
f  63/2/2 64/3/2 65/1/2
f  63/2/4 66/3/4 64/1/4
f  64/2/5 67/3/5 68/1/5
f  65/1/3 69/77/3 70/78/3
f  65/1/3 70/79/3 71/80/3
f  65/1/3 68/2/3 69/77/3
f  68/2/3 72/81/3 69/77/3
f  63/2/6 65/3/6 73/1/6
f  65/1/3 71/80/3 73/3/3
f  64/2/2 68/3/2 65/1/2
f  68/2/3 74/82/3 72/81/3
f  68/2/3 75/83/3 74/82/3
f  68/2/3 76/84/3 75/83/3
f  68/2/3 77/3/3 76/84/3
f  63/3/6 73/1/6 66/2/6
f  66/2/4 67/3/4 64/1/4
f  66/3/1 77/1/1 67/2/1
f  73/3/3 71/80/3 78/85/3
f  73/3/3 78/85/3 79/86/3
f  66/2/1 73/3/1 77/1/1
f  73/3/3 79/86/3 77/2/3
f  68/1/5 67/2/5 77/3/5
f  77/3/3 79/87/3 80/88/3
f  77/3/3 80/88/3 76/84/3
f  81/3/7 82/2/7 83/1/7
f  83/1/7 82/3/7 84/2/7
f  82/2/8 74/89/8 84/3/8
f  70/90/5 69/91/5 82/2/5
f  69/92/8 72/89/8 82/3/8
f  82/2/8 72/93/8 74/89/8
f  70/90/5 82/2/5 71/94/5
f  81/1/5 71/94/5 82/2/5
f  81/1/5 78/95/5 71/96/5
f  81/3/9 79/97/9 78/98/9
f  74/92/6 75/99/6 84/3/6
f  76/98/6 84/2/6 75/100/6
f  83/3/6 84/2/6 76/98/6
f  83/2/9 80/101/9 79/97/9
f  83/3/9 76/102/9 80/98/9
f  81/3/9 83/2/9 79/97/9

