# File produced by Open Asset Import Library (http://www.assimp.sf.net)
# (assimp v5.2.0)

# 70 vertex positions
v  41.5 0 -20.5
v  44.6435165 0 -18.3035603
v  44.6435165 0 -8.78330708
v  41.5 0 20.5
v  52.4999924 0 -20.5
v  44.6435165 10.8161488 18.3035622
v  41.5 17.0010738 -20.5
v  44.6435165 10.8161488 -18.3035603
v  44.6435165 0 18.3035622
v  41.5 17.0010738 20.5
v  52.4999924 0 20.5
v  51.6720314 6.35470486 18.3035622
v  44.704586 10.8161488 -18.3035603
v  44.704586 10.8161488 -18.2058697
v  44.704586 10.8161488 17.7893696
v  52.4999924 17.0010738 -20.5
v  44.704586 10.8161488 18.3035622
v  44.8766556 10.7059622 18.3035622
v  52.4999924 17.0010738 20.5
v  52.4999924 3.71282578 -18.3035603
v  52.4999924 0 -18.3035603
v  52.4999924 5.82454109 -18.3035603
v  52.4999924 10.8161488 -18.3035603
v  52.4999924 0 18.3035622
v  52.4999924 0.910748005 18.3035622
v  52.4999924 5.82454109 18.3035622
v  52.4999924 7.10329199 18.3035622
v  52.4999924 10.8161488 18.3035622
v  52.4999924 11.2234249 -18.3035603
v  52.4999924 16.0808353 -18.3035603
v  52.4999924 16.4233665 -18.3035603
v  52.4999924 16.4233665 6.6208849
v  52.4999924 16.4233665 18.0636673
v  52.4999924 16.4233665 18.3035622
v  44.5365562 10.9237461 -18.3035603
v  44.5365562 10.9237461 18.3035622
v  52.4229126 11.0628147 18.3035622
v  48.4992561 9.18363476 -20.5
v  48.4992561 9.18363476 -18.3035603
v  48.4992561 10.5232706 -18.3035603
v  48.4992561 34.1899986 -20.5
v  48.4992561 10.9936399 -18.3035603
v  48.4992561 13.6604414 -18.3035603
v  48.4992561 13.6604414 -18.1490345
v  48.4992561 13.6604414 -13.1599054
v  52.4999962 9.18365479 -20.5
v  48.4992561 9.18363476 20.5
v  48.4992561 10.8161688 18.3035622
v  48.4992561 9.18363476 18.3035622
v  48.4992561 34.1899986 20.5
v  48.4992561 13.6604414 -5.90088415
v  48.4992561 13.6604414 8.20793438
v  48.4992561 13.6604414 18.3035622
v  52.4999962 9.18365479 18.3035622
v  52.4999962 9.18365479 20.5
v  52.4999962 34.1899986 -20.5
v  52.4999962 9.18365479 -18.3035603
v  52.4999962 10.8161688 -18.3035603
v  52.4999962 11.2234449 -18.3035603
v  52.4999962 16.4233875 -18.3035603
v  52.4999962 10.5232706 18.3035622
v  52.4999962 34.1899986 20.5
v  52.4999962 10.8161688 18.3035622
v  52.4999962 11.2234449 18.3035622
v  52.4999962 15.0096874 18.3035622
v  52.4999962 16.4233875 -9.27891541
v  52.4999962 16.4233875 6.6208849
v  52.4999962 16.4233875 8.62984371
v  52.4999962 16.4233875 18.3035622
v  52.4229164 11.0628347 -18.3035603

# 115 UV coordinates
vt 1 0 0
vt 0.946428597 0.285774291 0
vt 0.71422714 0.285774291 0
vt 0 0 0
vt 1 1 0
vt 0.0535714291 1 0
vt 0.946428597 0.363794923 0
vt 0.28577286 1 0
vt -2.10571098e-08 1 0
vt -2.10571098e-08 0 0
vt 0.0535714291 0.363794923 0
vt 0.0535714291 0.285774291 0
vt 0 1 0
vt 0.946428597 1 0
vt 0.285774291 1 0
vt 0.285774291 0.363794923 0
vt 0.924731016 0.626216233 0
vt 0.946428597 0.291326106 0
vt 0.944045901 0.291326106 0
vt 0.0661126971 0.291326106 0
vt 0.0535714291 0.291326106 0
vt 0.291326076 0.363794923 0
vt 0.306968808 0.370276093 0
vt 0.714225709 1 0
vt -2.10571098e-08 0.781611025 0
vt 0.714225709 0.363794923 0
vt 0.0535714291 0.781611025 0
vt 0.0535714291 0.65740037 0
vt -2.10571098e-08 0.65740037 0
vt 1 0.946428776 0
vt 0.946428597 0.946428776 0
vt 0.946428597 0.65740037 0
vt 1 0.65740037 0
vt 0.946428597 0.582184434 0
vt 0.708673894 0.363794923 0
vt 0.0535714291 0.339839041 0
vt 0.0535714291 0.0541270971 0
vt 0.0535714291 0.0339794159 0
vt 0.661485016 0.0339794159 0
vt 0.940577507 0.0339794159 0
vt 0.946428597 0.0339794159 0
vt 0.124037594 0.276050627 0
vt 0.126044184 0.291326106 0
vt 0.124037594 0.291326106 0
vt 0.865400672 0.291326106 0
vt 0.875962377 0.276050627 0
vt 0.875962377 0.291326106 0
vt 1 0.582184434 0
vt 0.723949373 0.357466102 0
vt -2.10571098e-08 0.363794923 0
vt -2.10571098e-08 0.339839041 0
vt -2.10571098e-08 0.0541270971 0
vt -2.10571098e-08 0.0339794159 0
vt 0.867349625 0.276050627 0
vt 0.867349625 1 0
vt 0.367119938 1 0
vt 0.992992759 0.349286079 0
vt 0.276050657 0.357466102 0
vt 0.13265036 0.276050627 0
vt 1 0.363794923 0
vt 0.137464985 1 0
vt 1 0.0339794159 0
vt 0.13265036 1 0
vt 0.946428597 0.946428239 0
vt 0.946428597 0.927618206 0
vt 0.946428597 0.820973337 0
vt 0.942659616 0.820973337 0
vt 0.820973575 0.820973337 0
vt 0.946428597 0 0
vt 8.10471157e-09 1 0
vt 8.10471157e-09 0 0
vt 1 0.999999166 0
vt 0.0535714291 0.934715271 0
vt 0.643924117 0.820973337 0
vt 0.299806774 0.820973337 0
vt 0.0535714291 0.820973337 0
vt 6.24772456e-12 0 0
vt 0.0535714291 0 0
vt 8.10471157e-09 0.999999166 0
vt 0 0.999999166 0
vt 0.0535714291 0.999999166 0
vt 0.0535714291 0.918428361 0
vt 0.0535714291 0.71048367 0
vt 6.24772456e-12 1 0
vt 0.946428597 0.999999166 0
vt 0.946428597 0.934715271 0
vt 0.946428597 0.918428361 0
vt 0.946428597 0.767017245 0
vt 0.273685008 0.71048367 0
vt 0.661485016 0.71048367 0
vt 0.71048373 0.71048367 0
vt 0.946428597 0.71048367 0
vt 1 0.946428239 0
vt 8.10471157e-09 0.934715271 0
vt 0.0192663949 0.92485112 0
vt 1 0.927618206 0
vt 1 0.820973337 0
vt 0.864248455 0 0
vt 0.867349744 0 0
vt 0.867349744 1 0
vt 0.76411742 0 0
vt 0.686226368 1 0
vt 0.618429899 0 0
vt 0.335268319 0 0
vt 0.367119879 1 0
vt 1 0.918428361 0
vt 8.10471157e-09 0.820973337 0
vt 0.326800615 1 0
vt 0.132650226 0 0
vt 8.10471157e-09 0.918428361 0
vt 8.10471157e-09 0.71048367 0
vt 1 0.934715271 0
vt 1 0.767017245 0
vt 1 0.71048367 0
vt 0.132650226 1 0

# 10 vertex normals
vn 0 -1 0
vn 1 0 0
vn 0 0 -1
vn -1 0 0
vn 0 1 0
vn 0 0 1
vn 0.539259195 0.84213984 0
vn 0.568264782 -0.822845757 0
vn 4.99907264e-06 -1 0
vn 0.568264365 -0.822846055 0

# Mesh 'meshes[0]' with 70 faces
g meshes[0]
f  1/1/1 2/2/1 3/3/1
f  1/1/1 3/3/1 4/4/1
f  1/1/1 5/5/1 2/2/1
f  2/6/2 6/7/2 3/8/2
f  1/9/3 7/10/3 5/5/3
f  2/6/2 8/11/2 6/7/2
f  3/3/1 9/12/1 4/4/1
f  1/5/4 4/13/4 10/4/4
f  3/8/2 6/7/2 9/14/2
f  4/4/1 9/12/1 11/13/1
f  9/15/3 6/16/3 12/17/3
f  1/5/4 10/4/4 7/1/4
f  8/2/1 13/18/1 14/19/1
f  8/2/1 14/19/1 15/20/1
f  7/4/5 10/1/5 16/13/5
f  8/2/1 15/20/1 6/12/1
f  6/12/1 15/20/1 17/21/1
f  6/16/3 17/22/3 18/23/3
f  4/5/6 19/10/6 10/1/6
f  2/24/6 20/25/6 8/26/6
f  2/2/1 5/5/1 21/14/1
f  2/24/6 21/9/6 20/25/6
f  5/13/2 20/27/2 21/6/2
f  5/13/2 22/28/2 20/27/2
f  8/26/6 20/25/6 22/29/6
f  5/13/2 23/11/2 22/28/2
f  9/12/1 24/6/1 11/13/1
f  9/15/3 25/30/3 24/5/3
f  9/15/3 12/17/3 25/30/3
f  4/5/6 11/9/6 19/10/6
f  24/14/2 25/31/2 11/5/2
f  25/31/2 26/32/2 11/5/2
f  25/30/3 12/17/3 26/33/3
f  11/5/2 26/32/2 27/34/2
f  11/5/2 27/34/2 28/7/2
f  8/26/6 22/29/6 13/35/6
f  7/10/3 16/1/3 5/5/3
f  5/13/2 16/4/2 23/11/2
f  16/4/2 29/36/2 23/11/2
f  16/4/2 30/37/2 29/36/2
f  16/4/2 31/38/2 30/37/2
f  16/4/2 32/39/2 31/38/2
f  6/16/3 18/23/3 12/17/3
f  10/1/5 19/5/5 16/13/5
f  11/5/2 28/7/2 19/1/2
f  16/4/2 33/40/2 32/39/2
f  16/4/2 19/1/2 33/40/2
f  19/1/2 28/7/2 34/41/2
f  19/1/2 34/41/2 33/40/2
f  35/42/7 14/43/7 13/44/7
f  35/42/7 15/45/7 14/43/7
f  35/42/7 36/46/7 15/45/7
f  36/46/7 17/47/7 15/45/7
f  18/23/3 27/48/3 12/17/3
f  12/17/3 27/48/3 26/33/3
f  35/49/6 13/35/6 23/50/6
f  13/35/6 22/29/6 23/50/6
f  35/49/6 23/50/6 29/51/6
f  35/49/6 29/51/6 30/52/6
f  35/49/6 30/52/6 31/53/6
f  35/54/8 31/55/8 32/56/8
f  37/57/3 18/23/3 17/22/3
f  36/58/3 37/57/3 17/22/3
f  35/54/8 32/56/8 36/59/8
f  18/23/3 28/60/3 27/48/3
f  37/57/3 28/60/3 18/23/3
f  36/59/8 32/56/8 33/61/8
f  36/58/3 34/62/3 37/57/3
f  36/59/8 33/61/8 34/63/8
f  37/57/3 34/62/3 28/60/3

# Mesh 'meshes[1]' with 62 faces
g meshes[1]
f  38/5/4 39/14/4 40/64/4
f  38/5/4 40/64/4 41/1/4
f  41/1/4 40/64/4 42/65/4
f  41/1/4 42/65/4 43/66/4
f  41/1/4 43/66/4 44/67/4
f  41/1/4 44/67/4 45/68/4
f  38/1/9 46/5/9 39/69/9
f  38/70/3 41/71/3 46/72/3
f  47/13/4 48/73/4 49/6/4
f  50/4/4 45/68/4 51/74/4
f  50/4/4 51/74/4 52/75/4
f  47/13/4 50/4/4 48/73/4
f  50/4/4 53/76/4 48/73/4
f  50/4/4 52/75/4 53/76/4
f  47/77/9 49/78/9 54/6/9
f  47/5/6 55/79/6 50/1/6
f  41/1/4 45/68/4 50/4/4
f  41/4/5 50/1/5 56/13/5
f  46/5/9 57/14/9 39/69/9
f  46/80/2 58/73/2 57/81/2
f  46/80/2 56/4/2 58/73/2
f  56/4/2 59/82/2 58/73/2
f  56/4/2 60/83/2 59/82/2
f  47/77/9 54/6/9 55/84/9
f  55/72/2 54/85/2 61/64/2
f  62/1/2 61/64/2 63/86/2
f  55/72/2 61/64/2 62/1/2
f  62/1/2 63/86/2 64/87/2
f  62/1/2 64/87/2 65/88/2
f  41/71/3 56/1/3 46/72/3
f  56/4/2 66/89/2 60/83/2
f  56/4/2 67/90/2 66/89/2
f  56/4/2 68/91/2 67/90/2
f  50/1/6 55/79/6 62/71/6
f  50/1/5 62/5/5 56/13/5
f  62/1/2 69/92/2 68/91/2
f  62/1/2 65/88/2 69/92/2
f  56/4/2 62/1/2 68/91/2
f  40/93/6 39/5/6 58/94/6
f  70/95/6 42/96/6 40/93/6
f  70/95/6 43/97/6 42/96/6
f  44/98/10 43/99/10 60/100/10
f  44/98/10 60/100/10 45/101/10
f  45/101/10 66/102/10 51/103/10
f  52/104/10 51/103/10 67/105/10
f  49/70/3 48/94/3 54/72/3
f  64/106/3 48/94/3 53/107/3
f  52/104/10 68/108/10 53/109/10
f  57/79/6 58/94/6 39/5/6
f  70/95/6 40/93/6 58/94/6
f  70/95/6 59/110/6 43/97/6
f  59/110/6 60/111/6 43/97/6
f  45/101/10 60/100/10 66/102/10
f  66/102/10 67/105/10 51/103/10
f  70/95/6 58/94/6 59/110/6
f  48/94/3 61/93/3 54/72/3
f  48/94/3 63/112/3 61/93/3
f  64/106/3 63/112/3 48/94/3
f  65/113/3 64/106/3 53/107/3
f  65/113/3 53/107/3 69/114/3
f  52/104/10 67/105/10 68/108/10
f  68/108/10 69/115/10 53/109/10

