# File produced by Open Asset Import Library (http://www.assimp.sf.net)
# (assimp v5.2.0)

# 319 vertex positions
v  106.5 2 33
v  106.5 0 33
v  106.5 0 -33
v  106.5 2 -33
v  68.5 2 -33
v  68.5 0 -33
v  68.5 0 33
v  68.5 2 33
v  73.5 0 -33
v  73.5 5 -33
v  78.65625 2 -33
v  86.6999969 2 -33
v  75.5625 2 -31
v  78.65625 2 -31
v  78.65625 3.07141995 -31
v  73.5 0 33
v  75.5625 2 31
v  97.0331268 2 -31
v  78.65625 2 33
v  73.5 5 33
v  82.5131226 2 33
v  78.65625 2.45918012 31
v  78.65625 2 31
v  104.4375 2 -31
v  82.9668732 2 31
v  93.3000031 2 33
v  75.5625 5 -31
v  75.5625 5 -28.875
v  78.65625 5 -33
v  78.65625 5 -32.0384598
v  78.65625 5 -31
v  75.5625 5 12.3999901
v  78.65625 3.70000005 33
v  75.5625 5 31
v  78.65625 3.9000001 31
v  78.65625 4.21875 33
v  78.65625 5 32.5370293
v  78.65625 5 33
v  78.65625 5 31
v  97.4868774 2 -33
v  101.34375 2 -31
v  101.34375 2 -33
v  101.34375 2.45918012 -31
v  106.5 5 -33
v  101.34375 2 31
v  106.5 5 33
v  104.4375 2 31
v  101.34375 2 33
v  101.34375 3.07141995 31
v  101.34375 3.9000001 -31
v  101.34375 3.70000005 -33
v  104.4375 5 -31
v  104.4375 5 -12.3999901
v  101.34375 4.21875 -33
v  101.34375 5 -31
v  101.34375 5 -33
v  101.34375 5 -32.5370293
v  104.4375 5 31
v  104.4375 5 28.875
v  101.34375 5 33
v  101.34375 5 31
v  101.34375 5 32.0384598
v  57.5 0 -33
v  57.5 0 33
v  57.5 6 -33
v  74.5 0 -33
v  74.5 0 33
v  57.5 6 33
v  57.9655113 6 -28.5
v  58.6590881 6 -28.5
v  62.9047508 6 -28.5
v  57.9655113 6 -10.4672604
v  74.5 6 -33
v  57.9655113 6 28.5
v  59.6206818 6 28.5
v  64.0344772 6 28.5
v  74.5 6 33
v  64.0344772 6 -28.5
v  64.0344772 6 -7.63083982
v  64.0344772 6 19.5872593
v  67 3.03448009 -28.5
v  63.9655113 0 -28.5
v  67 3.03448009 28.5
v  63.9655113 0 28.5
v  106.5 0 -78
v  104.469696 0 -59.9024429
v  104.469696 0 -73.9024353
v  39.5 0 -78
v  100.409088 0 -73.9024353
v  100.409088 0 -72.146347
v  100.409088 0 -71.9544296
v  104.469696 2 -75.9512177
v  103.96212 2 -73.9024353
v  104.469696 2 -73.9024353
v  103.353027 2 -73.9024353
v  102.946968 2 -73.9024353
v  104.469696 2.54053998 -73.9024353
v  106.5 4.99998999 -78
v  41.530304 2 -75.9512177
v  101.31144 2 -73.9024353
v  100.409088 2 -73.9024353
v  100.409088 2 -71.923111
v  106.5 0 -36
v  100.409088 0 -42.734108
v  100.409088 2 -54.4008293
v  45.5909081 2 -73.9024353
v  100.409088 2 -54.3905945
v  45.5909081 2 -73.6593704
v  100.409088 2 -54.3861809
v  100.409088 2 -47.6097565
v  45.5909081 0 -73.9024353
v  42.8838234 0 -73.9024353
v  41.530304 0 -73.9024353
v  44.9324188 2 -73.9024353
v  42.4326401 2 -73.9024353
v  41.530304 0 -59.9024429
v  45.5909081 0 -71.2658997
v  45.5909081 2 -66.3902588
v  41.530304 2 -73.9024353
v  45.1602325 2 -73.9024353
v  45.5909081 2 -73.5059204
v  45.5909081 2 -71.2807083
v  43.0530319 2 -73.9024353
v  42.4439392 2 -73.9024353
v  42.0378799 2 -73.9024353
v  41.6251678 2 -73.9024353
v  41.530304 2.23164988 -73.9024353
v  39.5 0 -36
v  45.5909081 0 -42.0455856
v  100.409088 2 -42.7193069
v  100.409088 2 -40.4941025
v  100.409088 2 -40.3406372
v  39.5 4.99998999 -78
v  41.530304 2 -47.6097565
v  104.469696 5 -75.9512177
v  103.231667 5 -75.9512177
v  104.469696 5 -73.9024353
v  60.4121323 5 -75.9512177
v  104.469696 5 -64.5804977
v  106.5 4.99998999 -36
v  41.530304 5 -75.9512177
v  41.530304 5 -73.9024353
v  41.530304 5 -58.8780518
v  41.530304 4.24932003 -56.0584488
v  41.530304 5 -49.4195175
v  100.409088 0 -40.0975494
v  100.409088 2 -42.7165184
v  104.469696 2 -38.0487823
v  100.409088 2 -40.0975494
v  104.469696 0 -40.0975647
v  104.469696 0 -40.0975494
v  103.116165 0 -40.0975494
v  104.469696 2 -40.0975494
v  104.408173 2 -40.0975494
v  104.374817 2 -40.0975494
v  103.96212 2 -40.0975494
v  103.567337 2 -40.0975494
v  103.556061 2 -40.0975494
v  102.946968 2 -40.0975494
v  101.067581 2 -40.0975494
v  104.469696 2.23164988 -40.0975494
v  100.839767 2 -40.0975494
v  41.530304 0 -40.0975647
v  45.5909081 2 -59.5991707
v  45.5909081 2 -42.0769119
v  45.5909081 0 -40.0975494
v  42.8838234 0 -40.0975494
v  45.5909081 2 -41.9448357
v  41.530304 0 -40.0975494
v  44.6885376 2 -40.0975494
v  42.0378685 2 -40.0975494
v  39.5 4.99998999 -36
v  45.5909081 2 -42.0230064
v  45.5909081 2 -40.0975494
v  41.530304 2 -38.0487823
v  41.530304 2 -40.0975494
v  41.530304 2.54052997 -40.0975494
v  41.6604347 2 -40.0975494
v  104.469696 5 -55.1219482
v  104.469696 5 -40.0975494
v  85.5878448 5 -38.0487823
v  104.469696 4.24932003 -57.9415741
v  104.469696 5 -38.0487823
v  41.530304 5 -40.0975494
v  41.530304 5 -38.0487823
v  42.7683182 5 -38.0487823
v  138 0 -22
v  138 5 -22
v  138 2 -20.4615383
v  138 2 -6
v  110 0 -22
v  138 0 18
v  110 0 18
v  110 5 -22
v  138 5 -20.4615383
v  136.92308 5 -20.4615383
v  123.111115 5 -20.4615383
v  111.555557 5 -20.4615383
v  111.555557 5 0.637365103
v  138 2 15.7514877
v  138 2 16.4615383
v  138 2.13460994 16.4615383
v  138 5 18
v  110 5 18
v  138 4.80768967 16.4615383
v  138 5 16.4615383
v  126.962975 5 16.4615383
v  111.555557 5 15.7777843
v  111.555557 5 16.4615383
v  111.555557 2 -20.4615383
v  111.555557 2 16.4615383
v  35.9284439 -0.00108718872 -16
v  39.0719604 -0.00108718872 -13.8035603
v  39.0719604 -0.00108718872 -4.28330708
v  35.9284439 -0.00108718872 25
v  46.9284363 -0.00108718872 -16
v  39.0719604 10.8150616 22.8035622
v  35.9284439 16.9999866 -16
v  39.0719604 10.8150616 -13.8035603
v  39.0719604 -0.00108718872 22.8035622
v  35.9284439 16.9999866 25
v  46.9284363 -0.00108718872 25
v  46.1004753 6.35361767 22.8035622
v  39.1330299 10.8150616 -13.8035603
v  39.1330299 10.8150616 -13.7058697
v  39.1330299 10.8150616 22.2893696
v  46.9284363 16.9999866 -16
v  39.1330299 10.8150616 22.8035622
v  39.3050995 10.704875 22.8035622
v  46.9284363 16.9999866 25
v  46.9284363 3.71173859 -13.8035603
v  46.9284363 -0.00108718872 -13.8035603
v  46.9284363 5.8234539 -13.8035603
v  46.9284363 10.8150616 -13.8035603
v  46.9284363 -0.00108718872 22.8035622
v  46.9284363 0.909660816 22.8035622
v  46.9284363 5.8234539 22.8035622
v  46.9284363 7.1022048 22.8035622
v  46.9284363 10.8150616 22.8035622
v  46.9284363 11.2223377 -13.8035603
v  46.9284363 16.0797482 -13.8035603
v  46.9284363 16.4222794 -13.8035603
v  46.9284363 16.4222794 11.1208849
v  46.9284363 16.4222794 22.5636673
v  46.9284363 16.4222794 22.8035622
v  38.9650002 10.9226589 -13.8035603
v  38.9650002 10.9226589 22.8035622
v  46.8513565 11.0617275 22.8035622
v  42.9277 9.18254757 -16
v  42.9277 9.18254757 -13.8035603
v  42.9277 10.5221834 -13.8035603
v  42.9277 34.1889114 -16
v  42.9277 10.9925528 -13.8035603
v  42.9277 13.6593542 -13.8035603
v  42.9277 13.6593542 -13.6490345
v  42.9277 13.6593542 -8.65990543
v  46.9284401 9.1825676 -16
v  42.9277 9.18254757 25
v  42.9277 10.8150816 22.8035622
v  42.9277 9.18254757 22.8035622
v  42.9277 34.1889114 25
v  42.9277 13.6593542 -1.40088415
v  42.9277 13.6593542 12.7079344
v  42.9277 13.6593542 22.8035622
v  46.9284401 9.1825676 22.8035622
v  46.9284401 9.1825676 25
v  46.9284401 34.1889114 -16
v  46.9284401 9.1825676 -13.8035603
v  46.9284401 10.8150816 -13.8035603
v  46.9284401 11.2223577 -13.8035603
v  46.9284401 16.4223003 -13.8035603
v  46.9284401 10.5221834 22.8035622
v  46.9284401 34.1889114 25
v  46.9284401 10.8150816 22.8035622
v  46.9284401 11.2223577 22.8035622
v  46.9284401 15.0086002 22.8035622
v  46.9284401 16.4223003 -4.77891541
v  46.9284401 16.4223003 11.1208849
v  46.9284401 16.4223003 13.1298437
v  46.9284401 16.4223003 22.8035622
v  46.8513603 11.0617476 -13.8035603
v  25 0.5 44
v  25 0.5 104
v  25 3.5 44
v  111 0.5 44
v  111 0.5 104
v  25 3.5 104
v  27 2 46
v  27.8666687 3.5 46
v  27 3.5 46
v  27 3.5 74
v  68 3.5 46
v  111 3.5 44
v  27 2 102
v  109 2 46
v  27 3.5 102
v  68 3.5 102
v  103 0.5 60
v  109 0.5 60
v  103 0.5 88
v  109 0.5 88
v  111 3.5 104
v  103 2 60
v  104.714294 2 60
v  109 2 60
v  109 3.5 74
v  109 2 68
v  109 3.5 46
v  103 2 80
v  103 2 88
v  109 2 102
v  109 2 88
v  109 2.75 88
v  109 3.41665983 75.5555496
v  107.285721 2 88
v  109 3.5 76
v  108.133331 3.5 102
v  109 3.5 102
v  109 3.5 88

# 443 UV coordinates
vt 0 0 0
vt 0 1 0
vt 1 1 0
vt 1 0 0
vt 0.243750006 0.84375 0
vt 7.1054272e-17 0.600000024 0
vt 0.892857134 1 0
vt 0.892857134 0.892857134 0
vt 0.107142858 1 0
vt 0.600000024 0.600000024 0
vt 0.743571401 1 0
vt 0.15625 0.600000024 0
vt 0.273124993 0.600000024 0
vt 0.107142866 0.954081655 0
vt 0.107142858 0.107142866 0
vt 0.25642857 0.256428599 0
vt -2.78585484e-16 0.892857134 0
vt 0.300000012 1 0
vt 0 0.699999988 0
vt 0.0342741944 0.699999988 0
vt 0.84375 0.84375 0
vt 0 0.0625 0
vt 0.0321969688 0.0625 0
vt 0.141681209 0.15625 0
vt 0.15625 0.15625 0
vt 0.192857176 0.892857134 0
vt 0.125946954 0.15625 0
vt 0.699999988 0.699999988 0
vt 0.0625 0.687878788 0
vt 0.0625 0.0625 0
vt 0.15625 0.25999999 0
vt 0.107142866 0.810000002 0
vt 0.0625 0.969696999 0
vt 0.156250015 0.992985427 0
vt 0 0.15625 0
vt 0.15625 1 0
vt 0.107142866 0.699999988 0
vt 0.156250015 0.969696999 0
vt 0 0.600000024 0
vt 0.907196999 0.9375 0
vt 0.836735368 0.84375 0
vt 0.813446999 0.84375 0
vt 0.625378788 0.9375 0
vt 0 0.9375 0
vt 0.9375 0.969696999 0
vt 0.84375 0.969696999 0
vt 0.84375 0.985431254 0
vt 0.84375 1 0
vt 0.9375 0.9375 0
vt 0.189999998 0.892857194 0
vt 0.189999998 1 0
vt 0.170000002 1 0
vt 0.354545444 0.829999983 0
vt 0 0.829999983 0
vt 0 0.810000002 0
vt 0.810000002 0.810000002 0
vt 0.810000002 0.954081655 0
vt 0.829999983 1 0
vt 0.810000002 1 0
vt 0 0.170000017 0
vt 0.170000002 0.170000017 0
vt 0 0.189999998 0
vt 0.189999998 0.189999998 0
vt 0.475454539 0.645454526 0
vt 3.12685786e-16 0.189999998 0
vt -2.40527526e-16 0.170000017 0
vt 0.179615378 0.699999988 0
vt 0.170000002 0.699999988 0
vt 0.189999998 0.699999988 0
vt 0.829999983 0.829999983 0
vt 0.051874999 0.829999983 0
vt 0.125370368 0.825370371 0
vt 0.109999999 0.810000002 0
vt 0.129999995 0.829999983 0
vt -1.92422023e-16 0.810000002 0
vt 3.84844046e-16 0.829999983 0
vt 0.0273829829 0.0681818128 0
vt 0.0681818202 0.0681818128 0
vt -1.50271903e-16 0.0681818128 0
vt 0.249745056 0.317926884 0
vt 0.0273829829 0.341405094 0
vt 0.0273829829 0.931818187 0
vt 0.124746166 0.931818187 0
vt 0.384381205 0.931818187 0
vt 0.316199362 0.384381175 0
vt 9.24750205e-17 0.384381175 0
vt 0.384381205 0.384381175 0
vt 0.384381205 0.796776772 0
vt 0.683636248 0.683636189 0
vt 0.298078477 0.885716975 0
vt 0.316363782 1 0
vt 0.683636248 1 0
vt -1.99233042e-16 0.683636189 0
vt 0.186147407 0.186147392 0
vt 0.156363755 0.156363726 0
vt 0 0.186147392 0
vt 0.477510661 0.843636274 0
vt 0.843636274 0.843636274 0
vt 0.727272749 0.727272749 0
vt 0 0.727272749 0
vt 1.99232843e-16 0.843636274 0
vt 0.843636274 1 0
vt 0.430894315 0.969696999 0
vt 0.097560972 0.969696999 0
vt 0.097560972 0.909090877 0
vt 0.139372811 0.909090877 0
vt 0.143942416 0.909090877 0
vt 0.0540540554 0.991935492 0
vt 0.0540540665 1 0
vt 0.0540540554 0.982258081 0
vt 0.0540540554 0.975806475 0
vt 0.945945919 1 0
vt 0.945945919 0.945945919 0
vt 0.0540540554 0.949820817 0
vt 0.0540540554 0.935483873 0
vt 0.106275767 0.935483873 0
vt 0.839664161 0.909090877 0
vt 0.568575382 0.935483873 0
vt 0.0540540628 0.0645161271 0
vt 0.568845212 0.935483873 0
vt 0.0604672469 0.0645161271 0
vt 0.568961799 0.935483873 0
vt 0.747747838 0.935483873 0
vt 0.00665190024 0.0975610018 0
vt 0.0470559262 0.0975609422 0
vt 0.0672579482 0.0975609422 0
vt 0.162161991 0.777777791 0
vt 0.666666687 1 0
vt 0.777777791 0.777777791 0
vt 0.400591284 0.430894315 0
vt 0.922006965 1 0
vt 0 0.777777791 0
vt 0.414141327 1 0
vt 0.106060401 0.777777791 0
vt 0.215031683 0.992809474 0
vt 0.222222224 1 0
vt 0.21049203 0.988269806 0
vt 0.144667014 0.92244482 0
vt 0.625 0.777777791 0
vt 0.774999619 0.777777791 0
vt 7.01770608e-16 0.777777791 0
vt 0.0972222239 0.875 0
vt 0.19885774 0.976635516 0
vt 0.0540540665 0.0576735139 0
vt 0.0540540665 0.0540540814 0
vt 0.0298605058 0.0540540218 0
vt -1.38908004e-16 0.0540540814 0
vt 0.0395379253 0.0540540218 0
vt 0.0397171602 0.0540540218 0
vt 0.0459895395 0.0540540218 0
vt 0.0525466651 0.0540540218 0
vt 0.054054074 0.97683394 0
vt 0.069426775 0.160335839 0
vt 0.0576256663 1 0
vt 0.0645161271 0.0645161271 0
vt 0.876775086 0.935483873 0
vt -9.26053379e-17 0.0645161271 0
vt 0.0587087907 0.123224914 0
vt -8.67530562e-16 0.935483873 0
vt 0.187736139 0.252252281 0
vt 0.00404888205 0.939532757 0
vt 0.747747898 1 0
vt 0 0.945945919 0
vt 0.0196695514 0.699999988 0
vt 0.245945916 0.945945919 0
vt 7.94922058e-18 0.0487805009 0
vt 0.0184774566 0.0487805009 0
vt 0.0672579855 0.0975610018 0
vt 0.048780486 0.687878788 0
vt 0.048780486 0.0487805009 0
vt 0.289209157 0.319512188 0
vt 0.054054074 0.699999988 0
vt 0.048780486 0.969696999 0
vt 0.0975609943 0.969696999 0
vt 0 0.752037764 0
vt 0 0.444444418 0
vt 0.444444448 0.444444418 0
vt 0.455284715 0.969696999 0
vt 0.524842024 0.775067687 0
vt 0.527853012 0.527853012 0
vt 0.680487812 0.969696999 0
vt 0.902439177 0.909090877 0
vt 0.876848698 0.935483873 0
vt 0.935483873 0.935483873 0
vt 0.0104622766 0.945946157 0
vt 0.902439058 0.969696999 0
vt 0.902439237 0.969696999 0
vt 0.902439237 0.949495018 0
vt 0.945946157 1 0
vt 0.945946157 0.999022484 0
vt 0.945946157 0.998492599 0
vt 0.945946157 0.991935492 0
vt 0.945946157 0.985663116 0
vt 0.945946157 0.985483944 0
vt 0.945946157 0.975806534 0
vt 0.945946157 0.945946157 0
vt 0.054053843 0.976834059 0
vt 0.0540538579 1 0
vt -5.35089366e-18 0.945946157 0
vt 0.003619442 0.945946157 0
vt 0.765148461 0.856057584 0
vt 0.999999762 1 0
vt 0.366908491 0.431424618 0
vt 0.829208076 0.893724203 0
vt 0.576887548 0.777777791 0
vt 0.0585518479 0.777777791 0
vt 0.811530113 0.902439237 0
vt 0.851934254 0.902439237 0
vt 0.872135997 0.902438998 0
vt 0.0546450391 0.777777791 0
vt 0.872136176 0.902439237 0
vt 0.333331734 1 0
vt 0.124999523 0.777777791 0
vt 0.830630004 0.895145953 0
vt 0.832692564 0.897208691 0
vt 0.88143003 0.945946157 0
vt 0.895766973 0.945946157 0
vt 0.937881649 0.945946157 0
vt 0.0569577888 0.777777791 0
vt 0.282282054 1 0
vt 0.0320511796 0.777777791 0
vt 0.943878293 0.945946097 0
vt 0.514412642 0.544715643 0
vt 0.054053843 0.699999988 0
vt 0.524841726 0.775067806 0
vt 0.920916498 0.951219499 0
vt 0.639098287 0.951219499 0
vt 0 0.527853012 0
vt 0.279797673 0.724242091 0
vt -1.31976691e-15 0.444444418 0
vt 0.555555582 1 0
vt 7.68922944e-18 0.945946157 0
vt 0.245946169 0.945946157 0
vt 0 0.951219499 0
vt 0.951219499 0.969696999 0
vt 0.951219499 0.951219499 0
vt 0.375 0.777777791 0
vt 0.0519480519 1 0
vt 0.058551617 0.777777791 0
vt 0.0576254353 1 0
vt 0.125 0.777777791 0
vt 0.274999619 0.777777791 0
vt 0.279798269 0.724242687 0
vt 0.585858643 1 0
vt 0.527853131 0.527853131 0
vt 0.577190101 0.777777791 0
vt 0.577320874 0.777777791 0
vt 0.282282323 1 0
vt 0 0.527853131 0
vt 0.922006726 1 0
vt 2.31193781e-07 1 0
vt 0.666668236 1 0
vt 0.162165374 0.777777791 0
vt 0.144666776 0.922444582 0
vt 0.144749314 0.922527075 0
vt 0 0.752037883 0
vt 0.207070768 0.984848559 0
vt 0.198857829 0.976635575 0
vt 0.0972227007 0.875000477 0
vt 0.775000453 0.777777791 0
vt 0.625001431 0.777777791 0
vt 0.210491791 0.988269567 0
vt 0.215031445 0.992809236 0
vt 0.106063902 0.777777791 0
vt 0.36153847 0.961538434 0
vt 0.961538434 0.961538434 0
vt 2.09982644e-16 0.038461566 0
vt 0.0384615399 0.038461566 0
vt 0.0384615399 0.53174603 0
vt 0.0384615399 0.944444418 0
vt 0.565934062 0.944444418 0
vt 0.0562130176 0.600000024 0
vt 0.0384615399 0.600000024 0
vt 0.0384615399 0.573076963 0
vt 0 0.038461566 0
vt 0.567358553 0.961538434 0
vt 0.944444418 0.944444418 0
vt 0.0170940179 0.961538434 0
vt -4.19965288e-16 0.944444418 0
vt 0.391666681 0.980769217 0
vt 0 0.980769217 0
vt 0.980769217 0.980769217 0
vt 0.0192307699 1 0
vt 0.571428597 0.571428537 0
vt 0.0192307699 0.571428537 0
vt 0.0591715984 0.571428537 0
vt 0 0.571428537 0
vt 0.428571433 1 0
vt 0.980769217 1 0
vt 0.381868124 0.980769217 0
vt 1.75726546e-15 0.980769217 0
vt 0.40934065 0.980769217 0
vt 0.410052896 0.981481493 0
vt 0.946428597 0.285774291 0
vt 0.71422714 0.285774291 0
vt 0.0535714291 1 0
vt 0.946428597 0.363794923 0
vt 0.28577286 1 0
vt -2.10571098e-08 1 0
vt -2.10571098e-08 0 0
vt 0.0535714291 0.363794923 0
vt 0.0535714291 0.285774291 0
vt 0.946428597 1 0
vt 0.285774291 1 0
vt 0.285774291 0.363794923 0
vt 0.924731016 0.626216233 0
vt 0.946428597 0.291326106 0
vt 0.944045901 0.291326106 0
vt 0.0661126971 0.291326106 0
vt 0.0535714291 0.291326106 0
vt 0.291326076 0.363794923 0
vt 0.306968808 0.370276093 0
vt 0.714225709 1 0
vt -2.10571098e-08 0.781611025 0
vt 0.714225709 0.363794923 0
vt 0.0535714291 0.781611025 0
vt 0.0535714291 0.65740037 0
vt -2.10571098e-08 0.65740037 0
vt 1 0.946428776 0
vt 0.946428597 0.946428776 0
vt 0.946428597 0.65740037 0
vt 1 0.65740037 0
vt 0.946428597 0.582184434 0
vt 0.708673894 0.363794923 0
vt 0.0535714291 0.339839041 0
vt 0.0535714291 0.0541270971 0
vt 0.0535714291 0.0339794159 0
vt 0.661485016 0.0339794159 0
vt 0.940577507 0.0339794159 0
vt 0.946428597 0.0339794159 0
vt 0.124037594 0.276050627 0
vt 0.126044184 0.291326106 0
vt 0.124037594 0.291326106 0
vt 0.865400672 0.291326106 0
vt 0.875962377 0.276050627 0
vt 0.875962377 0.291326106 0
vt 1 0.582184434 0
vt 0.723949373 0.357466102 0
vt -2.10571098e-08 0.363794923 0
vt -2.10571098e-08 0.339839041 0
vt -2.10571098e-08 0.0541270971 0
vt -2.10571098e-08 0.0339794159 0
vt 0.867349625 0.276050627 0
vt 0.867349625 1 0
vt 0.367119938 1 0
vt 0.992992759 0.349286079 0
vt 0.276050657 0.357466102 0
vt 0.13265036 0.276050627 0
vt 1 0.363794923 0
vt 0.137464985 1 0
vt 1 0.0339794159 0
vt 0.13265036 1 0
vt 0.946428597 0.946428239 0
vt 0.946428597 0.927618206 0
vt 0.946428597 0.820973337 0
vt 0.942659616 0.820973337 0
vt 0.820973575 0.820973337 0
vt 0.946428597 0 0
vt 8.10471157e-09 1 0
vt 8.10471157e-09 0 0
vt 1 0.999999166 0
vt 0.0535714291 0.934715271 0
vt 0.643924117 0.820973337 0
vt 0.299806774 0.820973337 0
vt 0.0535714291 0.820973337 0
vt 6.24772456e-12 0 0
vt 0.0535714291 0 0
vt 8.10471157e-09 0.999999166 0
vt 0 0.999999166 0
vt 0.0535714291 0.999999166 0
vt 0.0535714291 0.918428361 0
vt 0.0535714291 0.71048367 0
vt 6.24772456e-12 1 0
vt 0.946428597 0.999999166 0
vt 0.946428597 0.934715271 0
vt 0.946428597 0.918428361 0
vt 0.946428597 0.767017245 0
vt 0.273685008 0.71048367 0
vt 0.661485016 0.71048367 0
vt 0.71048373 0.71048367 0
vt 0.946428597 0.71048367 0
vt 1 0.946428239 0
vt 8.10471157e-09 0.934715271 0
vt 0.0192663949 0.92485112 0
vt 1 0.927618206 0
vt 1 0.820973337 0
vt 0.864248455 0 0
vt 0.867349744 0 0
vt 0.867349744 1 0
vt 0.76411742 0 0
vt 0.686226368 1 0
vt 0.618429899 0 0
vt 0.335268319 0 0
vt 0.367119879 1 0
vt 1 0.918428361 0
vt 8.10471157e-09 0.820973337 0
vt 0.326800615 1 0
vt 0.132650226 0 0
vt 8.10471157e-09 0.918428361 0
vt 8.10471157e-09 0.71048367 0
vt 1 0.934715271 0
vt 1 0.767017245 0
vt 1 0.71048367 0
vt 0.132650226 1 0
vt 0.489430904 0.989430904 0
vt 0.5 1 0
vt 0 0.5 0
vt 0.5 0.5 0
vt 0.0232558139 0.0333333611 0
vt 0.0333333351 0.0333333611 0
vt 0.0232558139 0.5 0
vt -6.99569276e-17 0.0333333611 0
vt 0.466666669 0.5 0
vt 0.0232558139 0.966666639 0
vt 0.5 0.966666639 0
vt 0.17364341 0.906976759 0
vt 0.243410856 0.976744175 0
vt 0.640310049 0.906976759 0
vt 0.710077524 0.976744175 0
vt 0.176829264 0.926829278 0
vt 0.19773519 0.94773519 0
vt 0.25 1 0
vt 0.75 1 0
vt 0.607142866 1 0
vt 0.943410873 0.976744175 0
vt 0.476744175 0.976744175 0
vt 0.533972144 0.926829278 0
vt 0.676829278 0.926829278 0
vt 0.25 0.75 0
vt 0.472222209 0.527777791 0
vt 0.729094088 0.979094088 0
vt 0.443410844 0.976744175 0
vt 0.966666639 0.966666639 0
vt 0.25 0.5 0
vt 0.243410841 0.976744175 0
vt 0.0100775193 0.976744175 0
vt 0 0.966666639 0
vt 0.714285731 0.714285731 0
vt 0.285714298 1 0
vt 0 0.714285731 0
vt 0.428571433 0.428571403 0
vt 0.0714285746 0.5 0
vt 0 0.428571403 0

# 17 vertex normals
vn 1 0 0
vn -1 0 0
vn 0 1 0
vn 0 -1 0
vn 0 0 1
vn 0 0 -1
vn -0.707105637 0.707107961 0
vn 0.707106769 0.707106769 0
vn -0.707106769 -0.707106769 0
vn 0 1 -4.88095338e-06
vn 4.92537083e-06 1 0
vn -4.9253731e-06 1 0
vn 0 1 4.88095111e-06
vn 0.539259195 0.84213984 0
vn 0.568264782 -0.822845757 0
vn 4.99907264e-06 -1 0
vn 0.568264365 -0.822846055 0

# Mesh 'meshes[0]' with 12 faces
g meshes[0]
f  1/1/1 2/2/1 3/3/1
f  1/1/1 3/3/1 4/4/1
f  5/1/2 6/2/2 7/3/2
f  5/1/2 7/3/2 8/4/2
f  5/1/3 8/2/3 1/3/3
f  5/1/3 1/3/3 4/4/3
f  7/1/4 6/2/4 3/3/4
f  7/1/4 3/3/4 2/4/4
f  8/1/5 7/2/5 2/3/5
f  8/1/5 2/3/5 1/4/5
f  4/1/6 3/2/6 6/3/6
f  4/1/6 6/3/6 5/4/6

# Mesh 'meshes[1]' with 108 faces
g meshes[1]
f  9/2/6 10/3/6 11/5/6
f  9/2/6 11/5/6 12/6/6
f  13/3/5 14/7/5 15/8/5
f  9/2/2 16/3/2 10/1/2
f  13/2/3 17/1/3 14/9/3
f  9/3/6 12/10/6 3/2/6
f  9/2/4 3/3/4 16/1/4
f  17/1/3 18/11/3 14/9/3
f  16/2/5 19/12/5 20/1/5
f  16/2/5 21/13/5 19/12/5
f  17/2/6 22/14/6 23/9/6
f  17/1/3 23/15/3 24/2/3
f  23/15/3 25/16/3 24/2/3
f  16/2/5 26/10/5 21/13/5
f  13/2/5 15/17/5 27/18/5
f  13/2/1 27/19/1 28/20/1
f  10/3/6 29/21/6 11/5/6
f  10/1/3 28/22/3 27/23/3
f  10/1/3 27/23/3 30/24/3
f  10/1/3 30/24/3 29/25/3
f  27/18/5 15/17/5 31/26/5
f  27/23/3 31/27/3 30/24/3
f  13/2/1 28/20/1 32/28/1
f  10/1/3 32/29/3 28/30/3
f  13/2/1 32/28/1 17/3/1
f  16/2/2 20/3/2 10/1/2
f  20/1/5 19/12/5 33/31/5
f  17/2/6 34/19/6 35/32/6
f  17/2/6 35/32/6 22/14/6
f  10/1/3 20/2/3 32/29/3
f  17/2/1 32/19/1 34/18/1
f  20/1/5 33/31/5 36/25/5
f  32/29/3 20/2/3 34/33/3
f  20/2/3 37/34/3 34/33/3
f  20/1/5 36/35/5 38/25/5
f  20/2/3 38/36/3 37/34/3
f  34/19/6 39/37/6 35/32/6
f  34/33/3 37/34/3 39/38/3
f  3/2/6 12/10/6 40/13/6
f  41/7/3 18/11/3 17/1/3
f  24/3/3 41/7/3 17/1/3
f  3/2/6 40/13/6 42/12/6
f  24/2/5 43/14/5 41/9/5
f  3/2/6 42/12/6 44/1/6
f  16/1/4 3/2/4 2/3/4
f  16/2/5 2/3/5 26/10/5
f  25/16/3 45/8/3 24/2/3
f  3/3/1 46/1/1 2/2/1
f  45/8/3 47/3/3 24/2/3
f  2/2/5 48/5/5 26/39/5
f  47/3/6 45/7/6 49/8/6
f  2/2/5 46/3/5 48/5/5
f  24/2/5 50/32/5 43/14/5
f  44/1/6 42/12/6 51/31/6
f  24/2/5 52/19/5 50/32/5
f  24/3/2 47/2/2 53/28/2
f  3/2/1 44/3/1 46/1/1
f  44/1/6 51/31/6 54/25/6
f  24/2/2 53/19/2 52/18/2
f  52/19/5 55/37/5 50/32/5
f  44/1/6 54/35/6 56/25/6
f  52/40/3 57/41/3 55/42/3
f  44/3/3 56/21/3 57/41/3
f  52/40/3 44/3/3 57/41/3
f  52/40/3 53/43/3 44/3/3
f  44/3/3 53/43/3 46/2/3
f  47/2/6 49/17/6 58/18/6
f  47/2/2 59/20/2 53/28/2
f  53/43/3 59/44/3 46/2/3
f  46/3/5 60/21/5 48/5/5
f  58/18/6 49/17/6 61/26/6
f  47/2/2 58/19/2 59/20/2
f  58/45/3 61/46/3 62/47/3
f  46/3/3 62/47/3 60/48/3
f  58/45/3 62/47/3 46/3/3
f  59/49/3 58/45/3 46/3/3
f  15/50/1 14/51/1 11/52/1
f  12/53/3 11/54/3 14/55/3
f  12/53/3 14/55/3 18/56/3
f  22/57/1 19/58/1 23/59/1
f  19/60/3 21/61/3 23/62/3
f  23/62/3 21/61/3 25/63/3
f  26/64/3 25/65/3 21/66/3
f  15/50/1 11/52/1 30/67/1
f  29/68/1 30/67/1 11/52/1
f  15/50/1 30/67/1 31/69/1
f  22/57/1 33/70/1 19/58/1
f  22/57/1 35/56/1 33/70/1
f  36/71/1 33/54/1 35/55/1
f  37/72/1 36/71/1 35/55/1
f  37/72/1 35/55/1 39/73/1
f  37/72/1 38/74/1 36/71/1
f  12/53/3 18/56/3 40/70/3
f  18/75/3 41/51/3 40/76/3
f  40/76/3 41/51/3 42/52/3
f  43/57/2 42/58/2 41/59/2
f  26/64/3 45/59/3 25/65/3
f  26/64/3 48/58/3 45/59/3
f  49/50/2 45/51/2 48/52/2
f  43/57/2 51/70/2 42/58/2
f  43/57/2 50/56/2 51/70/2
f  54/71/2 51/54/2 50/55/2
f  57/72/2 54/71/2 50/55/2
f  57/72/2 50/55/2 55/73/2
f  56/74/2 54/71/2 57/72/2
f  49/50/2 48/52/2 62/67/2
f  60/68/2 62/67/2 48/52/2
f  49/50/2 62/67/2 61/69/2

# Mesh 'meshes[2]' with 40 faces
g meshes[2]
f  63/2/2 64/3/2 65/1/2
f  63/2/4 66/3/4 64/1/4
f  64/2/5 67/3/5 68/1/5
f  65/1/3 69/77/3 70/78/3
f  65/1/3 70/79/3 71/80/3
f  65/1/3 68/2/3 69/77/3
f  68/2/3 72/81/3 69/77/3
f  63/2/6 65/3/6 73/1/6
f  65/1/3 71/80/3 73/3/3
f  64/2/2 68/3/2 65/1/2
f  68/2/3 74/82/3 72/81/3
f  68/2/3 75/83/3 74/82/3
f  68/2/3 76/84/3 75/83/3
f  68/2/3 77/3/3 76/84/3
f  63/3/6 73/1/6 66/2/6
f  66/2/4 67/3/4 64/1/4
f  66/3/1 77/1/1 67/2/1
f  73/3/3 71/80/3 78/85/3
f  73/3/3 78/85/3 79/86/3
f  66/2/1 73/3/1 77/1/1
f  73/3/3 79/86/3 77/2/3
f  68/1/5 67/2/5 77/3/5
f  77/3/3 79/87/3 80/88/3
f  77/3/3 80/88/3 76/84/3
f  81/3/7 82/2/7 83/1/7
f  83/1/7 82/3/7 84/2/7
f  82/2/8 74/89/8 84/3/8
f  70/90/5 69/91/5 82/2/5
f  69/92/8 72/89/8 82/3/8
f  82/2/8 72/93/8 74/89/8
f  70/90/5 82/2/5 71/94/5
f  81/1/5 71/94/5 82/2/5
f  81/1/5 78/95/5 71/96/5
f  81/3/9 79/97/9 78/98/9
f  74/92/6 75/99/6 84/3/6
f  76/98/6 84/2/6 75/100/6
f  83/3/6 84/2/6 76/98/6
f  83/2/9 80/101/9 79/97/9
f  83/3/9 76/102/9 80/98/9
f  81/3/9 83/2/9 79/97/9

# Mesh 'meshes[3]' with 208 faces
g meshes[3]
f  85/2/4 86/103/4 87/104/4
f  85/2/4 87/104/4 88/1/4
f  88/1/4 87/104/4 89/105/4
f  88/1/4 89/105/4 90/106/4
f  88/1/4 90/106/4 91/107/4
f  92/2/3 93/108/3 94/109/3
f  92/2/3 95/110/3 93/108/3
f  92/2/3 96/111/3 95/110/3
f  92/3/2 94/112/2 97/113/2
f  85/2/6 88/3/6 98/1/6
f  92/2/3 99/1/3 96/111/3
f  99/1/3 100/114/3 96/111/3
f  99/1/3 101/115/3 100/114/3
f  99/1/3 102/116/3 101/115/3
f  85/2/4 103/3/4 86/103/4
f  88/1/4 91/107/4 104/117/4
f  99/1/3 105/118/3 102/116/3
f  106/119/3 107/120/3 105/118/3
f  108/121/3 109/122/3 107/120/3
f  108/121/3 110/123/3 109/122/3
f  88/1/4 111/124/4 112/125/4
f  88/1/4 112/125/4 113/126/4
f  111/2/5 114/127/5 112/128/5
f  112/128/5 115/129/5 113/3/5
f  88/1/4 113/126/4 116/130/4
f  111/3/2 117/131/2 118/129/2
f  113/2/1 119/132/1 116/133/1
f  99/1/3 106/119/3 105/118/3
f  111/2/5 106/132/5 120/134/5
f  111/2/2 108/135/2 106/136/2
f  111/2/5 120/134/5 114/127/5
f  111/2/2 121/137/2 108/135/2
f  111/2/2 122/138/2 121/137/2
f  112/128/5 114/127/5 123/139/5
f  112/128/5 123/139/5 124/140/5
f  112/128/5 124/140/5 115/129/5
f  113/2/5 115/141/5 125/142/5
f  113/2/5 125/142/5 126/143/5
f  113/2/5 126/143/5 119/136/5
f  99/1/3 120/144/3 106/119/3
f  99/1/3 114/145/3 120/144/3
f  99/1/3 123/146/3 114/147/3
f  99/1/3 124/148/3 123/146/3
f  99/1/3 115/149/3 124/148/3
f  99/1/3 125/150/3 115/149/3
f  99/1/3 126/151/3 125/150/3
f  99/1/3 119/145/3 126/151/3
f  99/2/1 127/152/1 119/109/1
f  111/2/2 118/132/2 122/138/2
f  88/1/4 103/2/4 111/124/4
f  111/124/4 103/2/4 117/153/4
f  88/1/4 116/130/4 128/3/4
f  117/131/2 129/154/2 118/129/2
f  106/119/3 108/121/3 107/120/3
f  108/121/3 121/155/3 130/156/3
f  121/157/3 122/158/3 131/159/3
f  122/158/3 118/160/3 132/161/3
f  88/2/2 128/3/2 133/1/2
f  119/109/1 127/152/1 134/162/1
f  119/132/1 134/129/1 116/133/1
f  92/2/2 97/163/2 135/18/2
f  92/2/5 135/19/5 136/164/5
f  135/18/2 97/163/2 137/165/2
f  98/1/10 136/166/10 135/167/10
f  98/1/11 135/167/11 137/168/11
f  98/1/10 138/169/10 136/170/10
f  98/1/11 137/168/11 139/171/11
f  92/2/5 136/164/5 138/28/5
f  85/2/1 98/3/1 140/1/1
f  98/1/11 139/171/11 140/3/11
f  92/2/5 138/28/5 99/3/5
f  88/2/6 133/3/6 98/1/6
f  99/2/1 141/19/1 127/152/1
f  98/1/10 133/2/10 138/169/10
f  99/2/5 138/19/5 141/18/5
f  127/152/1 141/19/1 142/172/1
f  138/169/10 133/2/10 141/173/10
f  133/2/12 142/174/12 141/173/12
f  127/175/1 142/176/1 143/177/1
f  133/2/12 143/178/12 142/174/12
f  127/152/1 144/179/1 134/162/1
f  127/175/1 143/177/1 144/180/1
f  133/2/12 145/181/12 143/178/12
f  88/1/4 104/117/4 146/182/4
f  88/1/4 146/182/4 103/3/4
f  85/3/1 140/1/1 103/2/1
f  108/121/3 130/156/3 110/123/3
f  121/155/3 147/183/3 130/156/3
f  121/155/3 131/184/3 147/183/3
f  122/158/3 132/161/3 131/159/3
f  118/160/3 148/2/3 149/185/3
f  118/160/3 149/185/3 132/161/3
f  103/3/4 150/186/4 86/103/4
f  103/3/4 151/187/4 150/186/4
f  103/3/4 152/188/4 151/187/4
f  103/3/4 146/182/4 152/188/4
f  148/3/3 153/189/3 154/190/3
f  148/3/3 154/190/3 155/191/3
f  148/3/3 155/191/3 156/192/3
f  156/192/3 157/193/3 148/3/3
f  148/3/3 157/193/3 158/194/3
f  148/3/3 158/194/3 159/195/3
f  148/3/3 159/195/3 160/196/3
f  148/2/2 161/197/2 153/198/2
f  148/2/3 160/199/3 162/200/3
f  148/2/3 162/200/3 149/185/3
f  117/153/4 103/2/4 129/201/4
f  116/133/1 134/129/1 163/202/1
f  118/160/3 164/203/3 148/2/3
f  164/203/3 165/204/3 148/2/3
f  118/129/2 129/154/2 164/205/2
f  164/205/2 129/154/2 165/206/2
f  103/2/4 166/207/4 129/201/4
f  103/2/4 167/208/4 166/207/4
f  103/2/4 128/3/4 167/208/4
f  116/130/4 163/209/4 128/3/4
f  129/154/2 166/2/2 168/210/2
f  134/129/1 169/3/1 163/202/1
f  167/208/4 128/3/4 169/211/4
f  163/209/4 169/211/4 128/3/4
f  166/3/6 167/212/6 170/129/6
f  167/212/6 169/2/6 171/213/6
f  103/3/5 172/1/5 128/2/5
f  148/2/3 165/204/3 173/214/3
f  148/2/3 173/214/3 168/215/3
f  148/2/3 168/215/3 174/216/3
f  148/2/3 174/216/3 170/217/3
f  148/2/3 170/217/3 171/218/3
f  148/2/3 171/218/3 175/3/3
f  129/154/2 173/219/2 165/206/2
f  129/154/2 168/210/2 173/219/2
f  134/132/1 176/136/1 169/2/1
f  134/132/1 177/220/1 176/136/1
f  166/2/2 174/132/2 168/210/2
f  166/2/6 170/141/6 174/136/6
f  167/212/6 171/213/6 170/129/6
f  169/2/6 178/221/6 171/213/6
f  169/2/6 176/132/6 178/221/6
f  171/218/3 178/222/3 175/3/3
f  178/222/3 176/196/3 175/3/3
f  176/189/1 177/196/1 175/3/1
f  140/3/11 139/171/11 179/223/11
f  148/2/2 180/224/2 161/197/2
f  148/3/6 175/2/6 181/28/6
f  103/2/5 140/3/5 172/1/5
f  180/224/2 182/225/2 161/197/2
f  140/3/11 179/223/11 180/211/11
f  148/2/2 183/19/2 180/224/2
f  148/2/6 181/19/6 183/18/6
f  183/226/11 140/3/11 180/211/11
f  183/226/13 181/227/13 140/3/13
f  140/3/13 181/227/13 172/2/13
f  133/1/2 128/2/2 172/3/2
f  134/132/1 144/228/1 145/229/1
f  143/230/1 145/229/1 144/228/1
f  133/2/12 172/3/12 145/181/12
f  134/132/1 184/231/1 177/220/1
f  175/2/1 177/232/1 185/18/1
f  175/2/6 186/164/6 181/28/6
f  134/132/1 145/229/1 184/231/1
f  145/181/12 172/3/12 184/187/12
f  177/232/1 184/233/1 185/18/1
f  175/2/6 185/19/6 186/164/6
f  181/227/13 186/234/13 172/2/13
f  184/187/12 172/3/12 185/235/12
f  186/236/13 185/235/13 172/3/13
f  96/237/5 89/3/5 87/2/5
f  90/238/1 89/2/1 101/132/1
f  90/238/1 102/239/1 91/240/1
f  93/241/5 87/2/5 94/132/5
f  95/242/5 87/2/5 93/241/5
f  95/242/5 96/237/5 87/2/5
f  96/237/5 100/129/5 89/3/5
f  89/2/5 100/141/5 101/136/5
f  90/238/1 101/132/1 102/239/1
f  139/243/2 94/136/2 87/2/2
f  91/240/1 102/239/1 105/205/1
f  86/244/2 182/245/2 87/3/2
f  91/240/1 107/246/1 109/247/1
f  91/240/1 105/205/1 107/246/1
f  91/240/1 109/247/1 110/129/1
f  94/136/2 139/243/2 97/248/2
f  139/243/2 137/231/2 97/248/2
f  182/249/2 139/243/2 87/2/2
f  139/243/2 182/249/2 179/176/2
f  91/240/1 110/129/1 104/250/1
f  86/244/2 150/251/2 182/245/2
f  104/250/1 110/129/1 146/3/1
f  153/132/2 150/251/2 151/2/2
f  152/252/6 157/129/6 151/3/6
f  152/252/6 146/2/6 160/253/6
f  130/254/1 146/2/1 110/132/1
f  147/255/1 146/2/1 130/254/1
f  150/251/2 161/256/2 182/245/2
f  154/257/6 153/136/6 151/2/6
f  154/257/6 151/2/6 155/258/6
f  155/258/6 151/2/6 156/259/6
f  156/259/6 151/2/6 157/141/6
f  152/252/6 158/260/6 157/129/6
f  152/252/6 159/261/6 158/260/6
f  152/252/6 160/253/6 159/261/6
f  150/251/2 153/132/2 161/256/2
f  147/255/1 131/262/1 146/2/1
f  132/263/1 146/2/1 131/262/1
f  162/264/6 160/253/6 146/2/6
f  132/263/1 149/136/1 146/2/1
f  162/264/6 146/2/6 149/132/6
f  182/245/2 180/176/2 179/177/2

# Mesh 'meshes[4]' with 46 faces
g meshes[4]
f  187/2/1 188/3/1 189/265/1
f  187/2/1 189/265/1 190/39/1
f  187/2/6 191/3/6 188/1/6
f  187/3/1 190/10/1 192/2/1
f  187/2/4 192/3/4 191/1/4
f  191/2/2 193/3/2 194/1/2
f  188/3/1 195/266/1 189/265/1
f  188/1/3 196/267/3 195/268/3
f  188/1/3 197/269/3 196/268/3
f  191/2/6 194/3/6 188/1/6
f  188/1/3 194/2/3 197/269/3
f  194/2/3 198/270/3 197/269/3
f  194/2/3 199/271/3 198/270/3
f  192/2/1 190/10/1 200/272/1
f  192/2/1 200/272/1 201/273/1
f  192/2/1 201/273/1 202/274/1
f  192/2/1 202/274/1 203/1/1
f  191/1/4 192/2/4 193/3/4
f  192/3/5 204/1/5 193/2/5
f  192/2/5 203/3/5 204/1/5
f  203/1/1 202/274/1 205/268/1
f  203/1/1 205/275/1 206/268/1
f  203/3/3 206/266/3 207/276/3
f  203/3/3 207/276/3 204/2/3
f  194/1/2 193/2/2 204/3/2
f  194/2/3 204/3/3 199/271/3
f  204/3/3 208/277/3 199/271/3
f  204/2/3 207/276/3 209/278/3
f  204/2/3 209/278/3 208/279/3
f  210/1/3 190/280/3 189/281/3
f  210/1/3 200/282/3 190/280/3
f  210/3/5 189/283/5 197/284/5
f  195/285/5 196/286/5 189/283/5
f  196/286/5 197/284/5 189/283/5
f  210/2/5 197/287/5 198/288/5
f  210/2/1 198/287/1 199/284/1
f  211/3/3 201/283/3 200/281/3
f  210/1/3 211/3/3 200/281/3
f  201/289/6 207/284/6 202/282/6
f  211/2/6 207/284/6 201/289/6
f  205/290/6 202/291/6 207/287/6
f  206/292/6 205/290/6 207/287/6
f  210/2/1 199/284/1 211/3/1
f  211/2/1 199/287/1 208/293/1
f  211/2/6 209/287/6 207/284/6
f  211/2/1 208/293/1 209/288/1

# Mesh 'meshes[5]' with 70 faces
g meshes[5]
f  212/4/4 213/294/4 214/295/4
f  212/4/4 214/295/4 215/1/4
f  212/4/4 216/3/4 213/294/4
f  213/296/1 217/297/1 214/298/1
f  212/299/6 218/300/6 216/3/6
f  213/296/1 219/301/1 217/297/1
f  214/295/4 220/302/4 215/1/4
f  212/3/2 215/2/2 221/1/2
f  214/298/1 217/297/1 220/303/1
f  215/1/4 220/302/4 222/2/4
f  220/304/6 217/305/6 223/306/6
f  212/3/2 221/1/2 218/4/2
f  219/294/4 224/307/4 225/308/4
f  219/294/4 225/308/4 226/309/4
f  218/1/3 221/4/3 227/2/3
f  219/294/4 226/309/4 217/302/4
f  217/302/4 226/309/4 228/310/4
f  217/305/6 228/311/6 229/312/6
f  215/3/5 230/300/5 221/4/5
f  213/313/5 231/314/5 219/315/5
f  213/294/4 216/3/4 232/303/4
f  213/313/5 232/299/5 231/314/5
f  216/2/1 231/316/1 232/296/1
f  216/2/1 233/317/1 231/316/1
f  219/315/5 231/314/5 233/318/5
f  216/2/1 234/301/1 233/317/1
f  220/302/4 235/296/4 222/2/4
f  220/304/6 236/319/6 235/3/6
f  220/304/6 223/306/6 236/319/6
f  215/3/5 222/299/5 230/300/5
f  235/303/1 236/320/1 222/3/1
f  236/320/1 237/321/1 222/3/1
f  236/319/6 223/306/6 237/322/6
f  222/3/1 237/321/1 238/323/1
f  222/3/1 238/323/1 239/297/1
f  219/315/5 233/318/5 224/324/5
f  218/300/6 227/4/6 216/3/6
f  216/2/1 227/1/1 234/301/1
f  227/1/1 240/325/1 234/301/1
f  227/1/1 241/326/1 240/325/1
f  227/1/1 242/327/1 241/326/1
f  227/1/1 243/328/1 242/327/1
f  217/305/6 229/312/6 223/306/6
f  221/4/3 230/3/3 227/2/3
f  222/3/1 239/297/1 230/4/1
f  227/1/1 244/329/1 243/328/1
f  227/1/1 230/4/1 244/329/1
f  230/4/1 239/297/1 245/330/1
f  230/4/1 245/330/1 244/329/1
f  246/331/14 225/332/14 224/333/14
f  246/331/14 226/334/14 225/332/14
f  246/331/14 247/335/14 226/334/14
f  247/335/14 228/336/14 226/334/14
f  229/312/6 238/337/6 223/306/6
f  223/306/6 238/337/6 237/322/6
f  246/338/5 224/324/5 234/339/5
f  224/324/5 233/318/5 234/339/5
f  246/338/5 234/339/5 240/340/5
f  246/338/5 240/340/5 241/341/5
f  246/338/5 241/341/5 242/342/5
f  246/343/15 242/344/15 243/345/15
f  248/346/6 229/312/6 228/311/6
f  247/347/6 248/346/6 228/311/6
f  246/343/15 243/345/15 247/348/15
f  229/312/6 239/349/6 238/337/6
f  248/346/6 239/349/6 229/312/6
f  247/348/15 243/345/15 244/350/15
f  247/347/6 245/351/6 248/346/6
f  247/348/15 244/350/15 245/352/15
f  248/346/6 245/351/6 239/349/6

# Mesh 'meshes[6]' with 62 faces
g meshes[6]
f  249/3/2 250/303/2 251/353/2
f  249/3/2 251/353/2 252/4/2
f  252/4/2 251/353/2 253/354/2
f  252/4/2 253/354/2 254/355/2
f  252/4/2 254/355/2 255/356/2
f  252/4/2 255/356/2 256/357/2
f  249/4/16 257/3/16 250/358/16
f  249/359/6 252/360/6 257/361/6
f  258/2/2 259/362/2 260/296/2
f  261/1/2 256/357/2 262/363/2
f  261/1/2 262/363/2 263/364/2
f  258/2/2 261/1/2 259/362/2
f  261/1/2 264/365/2 259/362/2
f  261/1/2 263/364/2 264/365/2
f  258/366/16 260/367/16 265/296/16
f  258/3/5 266/368/5 261/4/5
f  252/4/2 256/357/2 261/1/2
f  252/1/3 261/4/3 267/2/3
f  257/3/16 268/303/16 250/358/16
f  257/369/1 269/362/1 268/370/1
f  257/369/1 267/1/1 269/362/1
f  267/1/1 270/371/1 269/362/1
f  267/1/1 271/372/1 270/371/1
f  258/366/16 265/296/16 266/373/16
f  266/361/1 265/374/1 272/353/1
f  273/4/1 272/353/1 274/375/1
f  266/361/1 272/353/1 273/4/1
f  273/4/1 274/375/1 275/376/1
f  273/4/1 275/376/1 276/377/1
f  252/360/6 267/4/6 257/361/6
f  267/1/1 277/378/1 271/372/1
f  267/1/1 278/379/1 277/378/1
f  267/1/1 279/380/1 278/379/1
f  261/4/5 266/368/5 273/360/5
f  261/4/3 273/3/3 267/2/3
f  273/4/1 280/381/1 279/380/1
f  273/4/1 276/377/1 280/381/1
f  267/1/1 273/4/1 279/380/1
f  251/382/5 250/3/5 269/383/5
f  281/384/5 253/385/5 251/382/5
f  281/384/5 254/386/5 253/385/5
f  255/387/17 254/388/17 271/389/17
f  255/387/17 271/389/17 256/390/17
f  256/390/17 277/391/17 262/392/17
f  263/393/17 262/392/17 278/394/17
f  260/359/6 259/383/6 265/361/6
f  275/395/6 259/383/6 264/396/6
f  263/393/17 279/397/17 264/398/17
f  268/368/5 269/383/5 250/3/5
f  281/384/5 251/382/5 269/383/5
f  281/384/5 270/399/5 254/386/5
f  270/399/5 271/400/5 254/386/5
f  256/390/17 271/389/17 277/391/17
f  277/391/17 278/394/17 262/392/17
f  281/384/5 269/383/5 270/399/5
f  259/383/6 272/382/6 265/361/6
f  259/383/6 274/401/6 272/382/6
f  275/395/6 274/401/6 259/383/6
f  276/402/6 275/395/6 264/396/6
f  276/402/6 264/396/6 280/403/6
f  263/393/17 278/394/17 279/397/17
f  279/397/17 280/404/17 264/398/17

# Mesh 'meshes[7]' with 76 faces
g meshes[7]
f  282/2/2 283/3/2 284/1/2
f  282/2/4 285/3/4 283/1/4
f  283/2/5 286/3/5 287/1/5
f  288/2/5 289/405/5 290/406/5
f  288/2/1 290/407/1 291/408/1
f  284/1/3 290/409/3 289/410/3
f  284/1/3 291/411/3 290/409/3
f  288/2/5 292/407/5 289/405/5
f  284/1/3 289/412/3 292/413/3
f  282/2/6 284/3/6 293/1/6
f  288/2/3 294/1/3 295/3/3
f  288/2/1 291/408/1 294/3/1
f  283/2/2 287/3/2 284/1/2
f  284/1/3 287/2/3 291/411/3
f  294/2/1 291/407/1 296/406/1
f  291/411/3 287/2/3 296/414/3
f  294/2/6 296/407/6 297/408/6
f  296/414/3 287/2/3 297/415/3
f  283/1/4 285/2/4 298/416/4
f  282/3/6 293/1/6 285/2/6
f  285/2/4 299/417/4 298/416/4
f  285/2/4 286/3/4 299/417/4
f  283/1/4 298/416/4 300/418/4
f  283/1/4 300/418/4 286/3/4
f  286/3/4 301/419/4 299/417/4
f  286/3/4 300/418/4 301/419/4
f  285/3/1 302/1/1 286/2/1
f  288/3/5 295/2/5 292/408/5
f  294/1/3 303/420/3 295/2/3
f  284/1/3 292/413/3 293/3/3
f  295/2/3 303/420/3 304/421/3
f  295/2/3 304/421/3 305/422/3
f  295/3/2 305/423/2 306/408/2
f  285/2/1 293/3/1 302/1/1
f  306/408/2 305/423/2 307/424/2
f  292/408/5 295/2/5 308/407/5
f  292/413/3 308/425/3 293/3/3
f  295/2/2 306/407/2 308/406/2
f  293/3/3 308/425/3 306/426/3
f  294/1/3 309/427/3 303/420/3
f  294/1/3 310/428/3 309/427/3
f  294/2/6 297/408/6 311/3/6
f  294/1/3 311/3/3 310/428/3
f  287/1/5 286/2/5 302/3/5
f  287/2/3 302/3/3 297/415/3
f  306/408/2 307/424/2 312/422/2
f  313/429/2 314/430/2 312/422/2
f  311/3/3 315/431/3 310/428/3
f  311/3/3 312/423/3 315/431/3
f  311/2/2 313/429/2 312/422/2
f  314/430/2 306/408/2 312/422/2
f  293/3/3 306/426/3 302/2/3
f  302/2/3 306/426/3 316/432/3
f  297/407/6 317/405/6 311/2/6
f  297/415/3 302/3/3 317/433/3
f  311/2/2 318/407/2 313/429/2
f  311/2/6 317/405/6 318/406/6
f  318/407/2 319/434/2 313/429/2
f  302/2/3 316/432/3 319/435/3
f  318/436/3 302/2/3 319/435/3
f  317/437/3 302/2/3 318/436/3
f  298/3/5 299/2/5 304/438/5
f  299/3/2 301/2/2 307/438/2
f  303/439/5 298/2/5 304/440/5
f  305/440/5 304/438/5 299/2/5
f  299/2/2 307/440/2 305/439/2
f  309/438/1 298/2/1 303/440/1
f  300/3/1 298/2/1 309/438/1
f  300/2/6 315/438/6 301/3/6
f  307/438/2 301/2/2 312/440/2
f  300/2/1 309/440/1 310/439/1
f  300/2/6 310/440/6 315/438/6
f  301/2/6 315/440/6 312/439/6
f  314/177/2 313/287/2 316/441/2
f  306/442/2 314/176/2 316/443/2
f  316/441/2 313/287/2 319/443/2

